<svg width="1024" height="512" xmlns="http://www.w3.org/2000/svg" xmlns:xlink="http://www.w3.org/1999/xlink" overflow="hidden"><defs><clipPath id="clip0"><rect x="0" y="0" width="1024" height="512"/></clipPath></defs><g clip-path="url(#clip0)"><rect x="0" y="0" width="1024" height="512" fill="#9FD1D0"/><rect x="346" y="112" width="604" height="250" stroke="#000000" stroke-width="2.33333" stroke-miterlimit="8" fill="#FFFFFF"/><text fill="#FFFFFF" font-family="Avenir Next LT Pro Light,Avenir Next LT Pro Light_MSFontService,sans-serif" font-weight="300" font-size="13" transform="translate(634.891 234)">6.53</text><path d="M525.345 468 576 425.61 562.726 422.109 550.938 418.987 543.292 417 492 458.538Z" fill="#C5E3E3" fill-rule="evenodd"/><path d="M526.489 468.665 525 512 572.746 512 577 426Z" fill="#C5E3E3" fill-rule="evenodd"/><path d="M145.58 483.209 146 482.923 144.529 482.446 92 465 96.8326 512 103.977 512 145.58 483.209Z" fill="#F2494C" fill-rule="evenodd"/><path d="M200.895 501 201 501 148.105 483 148 483Z" fill="#F9AA19" fill-rule="evenodd"/><path d="M146.083 481.636 147 482 147 481.364 146 481Z" fill="#F2494C" fill-rule="evenodd"/><path d="M147 480 147 479 146 479.8Z" fill="#F2494C" fill-rule="evenodd"/><path d="M92 463 92 463.574 144 481 144 480.33Z" fill="#F39896" fill-rule="evenodd"/><path d="M145.281 479 147 477.764 142.811 429 92 461.795Z" fill="#F9C996" fill-rule="evenodd"/><path d="M90.1963 464.192 90.1963 464.192 89.9832 462.379 89.9832 462.379 89.9832 462.283C89.9832 462.283 89.9832 462.188 89.9832 462.188 89.9832 462.188 89.9832 462.188 89.9832 462.188L89.9832 462.188 89.9832 462.188C89.9832 462.188 89.9832 462.092 89.9832 462.092L89.9832 462.092 90.0898 461.997 90.0898 461.997 142 428.121 138.802 391 66 436.9 69.6241 469.44 74.7405 471.158 74.7405 471.158 74.8471 471.158 74.8471 471.158 74.9538 471.253 74.9538 471.253 74.9538 471.253 74.9538 471.349C74.9538 471.349 74.9538 471.349 74.9538 471.444 74.9538 471.444 74.9538 471.54 74.9538 471.54L74.9538 471.54 79.0042 508.66 88.5975 512 94.993 512 90.0898 464.192 90.1963 464.192Z" fill="#F9AA19" fill-rule="evenodd"/><path d="M64.4372 437.167 33 427 36.7725 458.548 68.0001 469Z" fill="#C5E3E3" fill-rule="evenodd"/><path d="M74.1614 473 41 494.206 41.2133 495.52 78.0001 508Z" fill="#F9AA19" fill-rule="evenodd"/><path d="M68.6842 470.59 37 460 41 493 73 472.009Z" fill="#F39891" fill-rule="evenodd"/><path d="M139 390.017 138.252 381.33 105.323 371.794 87.8959 366.79 23 348 32.4083 425.708 65.2305 436Z" fill="#61B3B2" fill-rule="evenodd"/><path d="M146.62 484 106 512 185.645 512 200 501.704Z" fill="#F2494C" fill-rule="evenodd"/><path d="M41 497 41.9589 504.547 63.4795 512 85.0001 512 78.1816 509.641Z" fill="#F9C996" fill-rule="evenodd"/><path d="M42.7456 512 60 512 42 506Z" fill="#E8E7E3" fill-rule="evenodd"/><path d="M42 512 41.1451 504.975 39.9695 496.147 39.7557 494.153 35.4809 459.218 31.5267 426.467 21.9084 347.2 16.8855 306 0 315.303 0 500.324 0 512Z" fill="#F39891" fill-rule="evenodd"/><path d="M0 509 0 512 1.00026 512Z" fill="#F9AA19" fill-rule="evenodd"/><path d="M377.874 284.199 377.874 284.199 377.874 284.199 377.98 284.199 378.087 284.199 378.406 284.199 433.277 297.24 435.515 297.812 488.361 261.448 489 232.89 349 203 351.024 302 377.874 284.199Z" fill="#DD1013" fill-rule="evenodd"/><path d="M379 285 380.074 372.167 432.678 386 433 297.696Z" fill="#61B3B2" fill-rule="evenodd"/><path d="M434.25 298 434 386.715 434.75 387 435 298.285Z" fill="#66B2B0" fill-rule="evenodd"/><path d="M436 386 487.172 348.401 489 262 436.537 297.795Z" fill="#D9D9D9" fill-rule="evenodd"/><path d="M323.734 364.543 325.116 411 379 372.792 379 372.792C379 372.792 378.894 372.697 378.894 372.697 378.894 372.697 378.894 372.602 378.894 372.602L378.894 372.507 378.894 372.507 377.831 285.282 350.942 302.822 350.836 302.822 350.729 302.822 350.623 302.822 350.517 302.822 350.517 302.822 350.411 302.822 350.304 302.822 350.198 302.727C350.198 302.727 350.092 302.727 350.092 302.633L350.092 302.633C350.092 302.633 350.092 302.633 350.092 302.538 350.092 302.538 350.092 302.443 349.986 302.443 349.986 302.443 349.986 302.348 349.986 302.348 349.986 302.348 349.986 302.348 349.986 302.253L347.966 201.85 343.715 0 313 0 322.459 321.215 323.734 364.543Z" fill="#C5E3E3" fill-rule="evenodd"/><path d="M490.577 458 542 416.354 509.567 407.721 489.297 402.409 467.213 396.527 435.314 388.084 432.86 387.42 379.41 373.19 379.41 373.19 379.303 373.19 379.197 373.095 379.09 373 325 411.231 325 411.231 490.577 458Z" fill="#61B3B2" fill-rule="evenodd"/><path d="M62.7276 108 91.0001 94.7736 82.2845 0 20 0 31.1602 101.625Z" fill="#61B3B2" fill-rule="evenodd"/><path d="M96.785 92.0062 92.5233 44.6263 92.5233 44.6263C92.5233 44.6263 92.5233 44.5313 92.5233 44.5313 92.5233 44.5313 92.5233 44.5313 92.5233 44.4364L92.5233 44.4364 92.5233 44.4364 92.5233 44.4364C92.5233 44.4364 92.5233 44.3414 92.5233 44.3414 92.5233 44.3414 92.5233 44.2465 92.6272 44.2465L92.7312 44.1516 92.8352 44.0566 92.8352 44.0566 92.8352 44.0566 113 34.9414 110.194 0 84 0 92.5233 94.0001 96.785 92.0062Z" fill="#DD1013" fill-rule="evenodd"/><path d="M490.427 459.476 379 428 379.535 475.973 500.809 512 523.502 512 525 469.147Z" fill="#D9D9D9" fill-rule="evenodd"/><path d="M324.571 413 321.016 415.471 321.016 415.471 321.016 415.471 321.016 415.471C321.016 415.471 321.016 415.567 321.124 415.567L321.124 415.662C321.124 415.662 321.124 415.757 321.124 415.757 321.124 415.757 321.124 415.852 321.124 415.852 321.124 415.852 321.124 415.852 321.124 415.947L321.124 415.947C321.124 415.947 321.124 416.042 321.124 416.042L321.016 416.137 321.016 416.137 318 418.513 319.293 459.768 330.28 463 374.23 430.776 378 428.019 324.571 413Z" fill="#0A4054" fill-rule="evenodd"/><path d="M375.649 473.972 379 475 378.351 429 375 431.431Z" fill="#F9C996" fill-rule="evenodd"/><path d="M319.964 415 324 411.915 318 410 318.109 414.468Z" fill="#22B0AE" fill-rule="evenodd"/><path d="M490 400.961 509.454 406 510 384.039 490.437 379Z" fill="#61B3B2" fill-rule="evenodd"/><path d="M467.396 395 489.793 378.219 489.9 378.219 490.006 378.219 490.006 378.219 490.113 378.219 490.22 378.219 490.326 378.219 490.433 378.219 510.484 383.375 538 362.281 487.873 350 437 387.219 467.396 395Z" fill="#D9D9D9" fill-rule="evenodd"/><path d="M469 395.608 488.586 401 489 380Z" fill="#F4F5F3" fill-rule="evenodd"/><path d="M380 477.574 475.31 506.262 475.417 506.262 475.523 506.262 475.63 506.262 475.63 506.262 475.63 506.262 475.63 506.358 475.63 506.358 475.737 506.454 475.737 506.454C475.737 506.454 475.737 506.549 475.737 506.549 475.737 506.549 475.737 506.645 475.737 506.645L475.737 506.645 475.737 506.645 475.63 512 497 512 380.107 477 380 477.574Z" fill="#9FD1D0" fill-rule="evenodd"/><path d="M318.132 409.295 324 411 322.765 366 317 370.074Z" fill="#22B0AE" fill-rule="evenodd"/><path d="M322 363.945 320.8 321.603 315 320 316.4 368Z" fill="#930B0D" fill-rule="evenodd"/><path d="M261.612 82.5348 266.924 200.509 281.904 203.731 281.904 203.731 282.01 203.731 282.116 203.731 282.116 203.731 282.223 203.826C282.223 203.826 282.223 203.826 282.223 203.921L282.223 203.921 282.223 203.921C282.223 203.921 282.223 204.015 282.223 204.015L282.223 204.015 282.223 204.11 282.223 204.11 282.223 204.11 283.816 242.487 312.288 249.121 312.288 249.121 312.395 249.121 312.501 249.121 312.501 249.121 312.607 249.215 312.607 249.215 312.607 249.215 312.607 249.215 312.607 249.31 312.607 249.405 312.607 249.405 312.607 249.405 314.732 318.389 321 320 311.97 0 258 0 260.762 61.8774 261.612 82.5348Z" fill="#61B3B2" fill-rule="evenodd"/><path d="M379 477 379 476.625 375 476 375 476.375Z" fill="#F2494C" fill-rule="evenodd"/><path d="M374 474.901 373.363 432 330.771 463.772 280 501.536 280.425 512 327.797 512 374 476.423Z" fill="#F9C996" fill-rule="evenodd"/><path d="M267.328 497.936 246 491 247.167 512 279 512 278.576 501.5Z" fill="#F9C996" fill-rule="evenodd"/><path d="M309.813 466.73 269 496.777 279.283 500 329 463.033 318.929 460Z" fill="#F9AA19" fill-rule="evenodd"/><path d="M63.0001 113.121 62.2526 112.931C62.2526 113.216 61.9323 113.312 61.7187 113.407 61.3983 113.407 61.0781 113.216 61.0781 112.931L60.6509 109.223 60.6509 109.223C60.6509 109.223 60.6509 109.128 60.6509 109.128 60.6509 109.128 60.6509 109.033 60.6509 109.033L60.6509 109.033 60.6509 109.033C60.6509 109.033 60.6509 108.938 60.6509 108.938L60.6509 108.938C60.6509 108.938 60.6509 108.938 60.6509 108.843L60.6509 108.843C60.6509 108.843 60.6509 108.843 60.7577 108.748L60.7577 108.748 60.8645 108.652 60.8645 108.652 60.8645 108.652 60.8645 108.652 30.3254 102.282 18.7933 100 0 108.557 0 122.82 29.1509 129 63.0001 113.121Z" fill="#F9AA19" fill-rule="evenodd"/><path d="M92.142 319.475 92.142 319.475 113.55 325.338 113.55 325.338 116 326 96.722 116.904 62 110 62.3195 112.932C62.3195 113.026 62.3195 113.026 62.3195 113.121L63.0651 113.31 63.7042 113.026C64.0237 112.837 64.3432 113.026 64.5562 113.215 64.5562 113.215 64.5562 113.215 64.5562 113.215 64.7693 113.499 64.5562 113.783 64.3432 113.972 64.3432 113.972 64.3432 113.972 64.3432 113.972L64.1302 114.067 84.7929 317.489C84.8994 317.489 85.0059 317.489 85.0059 317.489L92.142 319.475Z" fill="#3C7C7B" fill-rule="evenodd"/><path d="M17.5532 304.26 17.5532 304.26 17.5532 304.26 17.766 304.26 17.766 304.26C17.766 304.26 17.766 304.26 17.8723 304.355L17.9788 304.45 17.9788 304.45 17.9788 304.45C17.9788 304.45 17.9788 304.544 17.9788 304.544L17.9788 304.639 17.9788 304.639 17.9788 304.639 22.9787 346.173 87.8724 365 95.0001 360.743 90.9575 320.439 84.2554 318.547C83.9362 318.452 83.7235 318.168 83.8298 317.884 83.9362 317.695 84.149 317.506 84.3617 317.506L63.8298 114 29.7872 129.894 35.1064 177.105 35.1064 177.105 35.1064 177.105C35.1064 177.199 35.1064 177.199 35.1064 177.199 35.1064 177.199 35.1064 177.199 35.1064 177.199L35.1064 177.199 35.1064 177.199 35.1064 177.294C35.1064 177.294 35.1064 177.389 35 177.389L35 177.389 35 177.389C35 177.389 34.8936 177.483 34.8936 177.483 34.8936 177.483 34.8936 177.578 34.7873 177.578L34.7873 177.578 0 194.702 0 259.51 5.21274 300.855 17.5532 304.26Z" fill="#F9C996" fill-rule="evenodd"/><path d="M116 364.378 115.57 359.964 115.57 359.964 112.45 326.566 92.1195 321 96.2072 361.787C96.2072 361.787 96.2072 361.787 96.2072 361.883 96.2072 361.979 96.2072 361.979 96.2072 361.979 96.2072 361.979 96.2072 362.075 96.0996 362.075 96.0996 362.075 96.0996 362.171 96.0996 362.171L95.992 362.267 95.8845 362.363 89 366.394 104.92 371 116 364.378Z" fill="#61B3B2" fill-rule="evenodd"/><path d="M121 360 117.787 327.282 117.098 327.658 117.098 327.658 117.098 327.658 116.984 327.658 116.984 327.658 116.869 327.658 116.754 327.658 116.639 327.658 116.639 327.658 114 327 117.213 358.966 121 360Z" fill="#0A4054" fill-rule="evenodd"/><path d="M117 360 117.375 363 121 361Z" fill="#22B0AE" fill-rule="evenodd"/><path d="M28.7446 130.007 0 124 0 168.397 34.0001 176Z" fill="#F9C996" fill-rule="evenodd"/><path d="M0 170 0 193 33 177.297Z" fill="#61B3B2" fill-rule="evenodd"/><path d="M0 270 0 299.954 4.00009 301Z" fill="#9FD1D0" fill-rule="evenodd"/><path d="M140 264.846 126.5 103 98 116.463 117.393 326 118.679 325.242 133.036 316.803 129.071 271.293C129.071 271.293 129.071 271.293 129.071 271.198 129.071 271.198 129.071 271.103 129.071 271.103L129.071 271.103 129.071 271.103 129.071 271.103C129.071 271.103 129.071 271.008 129.071 271.008L129.071 271.008C129.071 271.008 129.071 271.008 129.179 270.914L129.286 270.819 140 264.846Z" fill="#F9C996" fill-rule="evenodd"/><path d="M240.286 61.6552C240.071 61.6552 239.857 61.5603 239.75 61.3707L149 104.991 195.714 114 260 81.9483 259.143 62.1293 240.821 59 240.929 61.0862C240.821 61.3707 240.607 61.5603 240.286 61.6552Z" fill="#F9C996" fill-rule="evenodd"/><path d="M148.967 105 149.182 105 240 61.5244C239.893 61.4299 239.893 61.3354 239.893 61.2409L239.786 58.5 239.786 58.5 237.427 12 145 53.7744 148.967 105Z" fill="#DD1013" fill-rule="evenodd"/><path d="M204.191 229 257.068 198.81 257.068 198.81C257.174 198.81 257.174 198.714 257.28 198.714L257.28 198.714 257.492 198.714 265 200.333 259.818 83 197 114.81 204.191 229Z" fill="#3C7C7B" fill-rule="evenodd"/><path d="M126.786 101.734 127 101.637 98.5318 96.0085C98.4248 96.2996 98.2107 96.3967 97.9967 96.4937 97.6756 96.4937 97.3545 96.2996 97.3545 96.0085L97.0334 93 92.2174 95.2321 92.2174 95.2321 63.107 109.013 63 109.013 97.2475 116 126.786 101.734Z" fill="#3C7C7B" fill-rule="evenodd"/><path d="M98.5799 95.8861 126.911 101.392 127.55 101.108 127.55 101.108 127.657 101.108 127.763 101.108 127.976 101.108 148 105 144.059 53.8291 94 45 98.2604 91.9937 98.5799 95.8861C98.5799 95.7912 98.5799 95.8861 98.5799 95.8861Z" fill="#61B3B2" fill-rule="evenodd"/><path d="M159 254.101 147.669 105.807 128 102 141.469 264Z" fill="#F9C996" fill-rule="evenodd"/><path d="M203 229.406 195.656 115.871 149 107 160.448 253Z" fill="#DD1013" fill-rule="evenodd"/><path d="M4.51006 302.225 4.51006 302.225 4.4027 302.225 0 301 0 314 16.0001 305.333Z" fill="#F2494C" fill-rule="evenodd"/><path d="M318 415 318 416 319 415.333Z" fill="#0A4054" fill-rule="evenodd"/><path d="M202 502.093 203 512 203 512 202 502Z" fill="#F9C996" fill-rule="evenodd"/><path d="M379.493 478.247 375.227 477 330 512 467.92 512 474 506.918Z" fill="#F39891" fill-rule="evenodd"/><path d="M188 512 202 512 201.349 503Z" fill="#9FD1D0" fill-rule="evenodd"/><path d="M310.083 465 318 459.037 316.75 417.581 316.75 416.729 316.75 416.729 316.75 416.729 316.646 414.268 316.646 414.268 316.646 414.268 316.646 414.268 316.542 409.252 315.292 369.31 313.729 319.336 311.646 251 303 256.395Z" fill="#3C7C7B" fill-rule="evenodd"/><path d="M203.791 230.365 160.394 254.676 141.582 265.176 141.582 265.176 140.834 265.649 140.834 265.649 131 271.135 209.99 291 278.506 250.135 278.506 250.135 278.506 250.135 278.613 250.135 278.72 250.135 279.04 250.135 302.235 255.527 311 250.23 283.209 243.797 233.72 232.446 233.72 232.446 233.613 232.446 233.506 232.351C233.506 232.257 233.399 232.257 233.399 232.257L233.399 232.257C233.399 232.257 233.399 232.162 233.292 232.162 233.292 232.162 233.292 232.068 233.292 232.068 233.292 232.068 233.292 231.973 233.292 231.973 233.292 231.973 233.292 231.878 233.292 231.878L233.292 231.878C233.292 231.878 233.292 231.878 233.292 231.784L233.399 231.689 233.506 231.595 233.613 231.5 280.323 204.824 266.214 201.797 258.09 200 203.791 230.365Z" fill="#930B0D" fill-rule="evenodd"/><path d="M130 272 133.955 317.131 138.124 365.587 138.124 365.587 139.407 380.789 139.407 380.789 140.262 390.195 143.576 428.485 147.959 478.556 148.279 482.451 203.01 500.219 203.01 500.219 203.117 500.314 203.224 500.314 203.224 500.314 203.224 500.314C203.224 500.314 203.224 500.314 203.224 500.314L203.224 500.409 203.224 500.504 203.224 500.599C203.224 500.599 203.224 500.599 203.224 500.694L203.972 512 223 512 209.104 292.047 130 272Z" fill="#F39891" fill-rule="evenodd"/><path d="M144.494 53.0001 236 11.5675 187.361 4 114.456 35.8784 114.349 35.8784 114.349 35.8784 95 44.3919Z" fill="#F9C996" fill-rule="evenodd"/><path d="M122.293 360.884 137 365 132.829 318 119 325.945Z" fill="#9FD1D0" fill-rule="evenodd"/><path d="M121.812 362C121.812 362.283 121.495 362.377 121.283 362.471L121.177 362.471 117.157 364.922 107 371.047 138 380 136.836 366.147 121.812 362 121.812 362Z" fill="#F4F5F3" fill-rule="evenodd"/><path d="M469 512 474 512 474 508Z" fill="#9FD1D0" fill-rule="evenodd"/><path d="M244.439 490.563C244.439 490.563 244.439 490.468 244.439 490.468L244.439 490.468C244.439 490.468 244.439 490.468 244.439 490.373L244.439 490.373 244.439 490.373 244.544 490.278C244.544 490.278 244.544 490.278 244.544 490.183L244.544 490.183 244.544 490.183 286 460.019 277.456 252 211 292.314 224.608 512 245.599 512 244.439 490.563C244.439 490.657 244.439 490.563 244.439 490.563Z" fill="#61B3B2" fill-rule="evenodd"/><path d="M287.298 461 246 490.386 267.024 497 308 467.236Z" fill="#930B0D" fill-rule="evenodd"/><path d="M301.609 256.23 279 251 287.804 459.629 309 466Z" fill="#E8E7E3" fill-rule="evenodd"/><path d="M282 243 280.511 206 235 232.118Z" fill="#22B0AE" fill-rule="evenodd"/><path d="M316 369.69 316.123 370 323 365.552 322.877 364.31 322.877 364 316 368.448Z" fill-rule="evenodd"/><path d="M148 484 148 484 147.733 483.667 146.4 483 146 483.5 146 483.5 146.133 483.5 146.267 483.333 146.4 483.333 146.533 483.333 146.667 483.333 146.8 483.333 148 484Z" fill-rule="evenodd"/><path d="M147.87 482.7 147.87 482.7C147.739 482.6 147.739 482.6 147.609 482.6 147.609 482.6 147.609 482.5 147.478 482.5 147.478 482.5 147.478 482.4 147.478 482.4 147.478 482.4 147.478 482.4 147.478 482.3L147.478 482.3 147.478 482.3 147.348 481.4 145.913 481 145.913 481.4 145.913 481.4C145.913 481.4 145.913 481.5 145.913 481.5 145.913 481.6 145.913 481.6 145.913 481.7L145.913 481.7 145.913 481.7C145.913 481.8 145.783 481.8 145.783 481.9 145.783 481.9 145.783 481.9 145.652 482 145.652 482 145.522 482.1 145.522 482.1L145.391 482.1 145.261 482.1 145.261 482.1 145 482.1 145 482.1 145 482.1 146.696 482.6 148 483 147.87 482.7Z" fill-rule="evenodd"/><path d="M510.765 384.194 510.647 384.291 510.529 384.291 510.176 384.291 509.706 384.194 509 406.709 509.824 406.903 510.294 407 511 384 510.765 384.194 510.765 384.194Z" fill-rule="evenodd"/><path d="M564 408 564 409C565.333 408.75 565.333 408.25 564 408Z" fill-rule="evenodd"/><path d="M538.146 362 510 382.975 510.327 383.068C510.655 383.161 510.873 383.441 510.764 383.72 510.764 383.814 510.655 383.907 510.545 384L510.545 384 510.764 383.814 540 362.186 540 362.186C539.891 362.28 539.564 362.373 539.346 362.373L538.146 362Z" fill-rule="evenodd"/><path d="M490 378 490 378 490.108 378C490.108 378 490.108 378 490.216 378.104L490.324 378.209 490.324 378.209C490.324 378.209 490.324 378.209 490.324 378.313 490.324 378.313 490.324 378.418 490.432 378.418 490.432 378.418 490.432 378.522 490.432 378.522 490.432 378.522 490.432 378.627 490.432 378.627L490.432 379.463 509.783 384.896 510.215 385 510.54 385 510.648 385 510.756 384.896C510.864 384.791 510.972 384.687 510.972 384.582 511.08 384.269 510.864 383.955 510.54 383.851L510.215 383.746 490 378 490 378Z" fill-rule="evenodd"/><path d="M434 298.282 433.533 298.094 433.2 298 433 385.624 433.467 385.812 433.733 386Z" fill-rule="evenodd"/><path d="M374 430.25 374 430.25 374.2 430.25 374.3 430.25 374.4 430.25C374.4 430.25 374.5 430.25 374.5 430.25L374.6 430.25 374.7 430.333 374.8 430.417 374.8 430.417C374.8 430.417 374.8 430.417 374.8 430.5L374.9 430.583C374.9 430.583 374.9 430.667 374.9 430.667 374.9 430.667 374.9 430.75 374.9 430.75L374.9 431 378 428.833 378 428.167 377.4 428 374 430.25Z" fill-rule="evenodd"/><path d="M489.5 380.375 489 400.725 489.875 400.908 490.375 401 491 379.825 491 379.092C491 379.092 491 379 491 379 491 379.183 491 379.367 490.75 379.458L489.5 380.375Z" fill-rule="evenodd"/><path d="M468.527 396 489.691 379.849 490.782 378.973C491 378.876 491 378.681 491 378.487 491 378.487 491 378.389 491 378.389 491 378.389 491 378.292 490.891 378.292 490.891 378.292 490.891 378.292 490.891 378.195L490.891 378.195 490.782 378.097C490.782 378.097 490.782 378.097 490.673 378L490.564 378 490.455 378 490.346 378 490.236 378 490.236 378 490.127 378C490.127 378 490.018 378 490.018 378.097L490.018 378.097 489.909 378.097 467 395.514 467.327 395.611 468.527 396Z" fill-rule="evenodd"/><path d="M325.212 412.195 325.212 412.195 325 412.39 377.365 427.805 378 428 378 427.61C378 427.61 378 427.512 378 427.512L325.317 412 325.212 412.098 325.212 412.195Z" fill-rule="evenodd"/><path d="M433.68 298C433.359 297.905 433.146 297.622 433.253 297.338 433.253 297.338 433.253 297.338 433.253 297.338 433.359 297.054 433.68 296.865 434 296.96L379 284 379 284 379.107 284 379.214 284.095 379.32 284.189 379.32 284.189C379.32 284.189 379.32 284.189 379.32 284.284 379.32 284.284 379.32 284.378 379.32 284.378 379.32 284.378 379.32 284.473 379.32 284.473 379.32 284.473 379.32 284.473 379.32 284.568L379.32 285.324 433.039 298 433.68 298Z" fill-rule="evenodd"/><path d="M433.029 297.294C432.919 297.471 433.139 297.647 433.469 297.706 433.469 297.706 433.469 297.706 433.469 297.706L434.239 297.824 435.56 298 435.56 297.706 435.56 297.706C435.56 297.706 435.56 297.647 435.56 297.647L435.56 297.588 435.67 297.529 435.78 297.471 435.78 297.471 436 297.353 433.689 297C433.359 297.059 433.139 297.118 433.029 297.294Z" fill-rule="evenodd"/><path d="M349 203.141 489.147 233 489.147 232.525C489.147 232.239 489.467 231.954 489.787 231.954 489.893 231.954 489.893 231.954 490 231.954L490 231.954 349 202 349 203.141 349 203.141Z" fill-rule="evenodd"/><path d="M142 263.526 127.895 102.095 127.336 102 127 102.095 141.105 264Z" fill-rule="evenodd"/><path d="M435.5 298.38 435 386.905 435.625 387 436.5 386.431 437 298.285 436.75 298.474C436.375 298.664 436 298.664 435.75 298.38 435.75 298.38 435.75 298.38 435.75 298.38 435.625 298.285 435.625 298.095 435.625 298L435.625 298 435.5 298.38Z" fill-rule="evenodd"/><path d="M96.88 361.619C97.0001 361.714 97.0001 361.809 97.0001 362 97.0001 362 97.0001 361.905 97.0001 361.905L92.4401 321.381 91.48 321.095 91 321 95.56 361.619 95.9201 361.428C96.1601 361.333 96.6401 361.333 96.88 361.619 96.88 361.619 96.88 361.619 96.88 361.619Z" fill-rule="evenodd"/><path d="M89.481 366 96.6582 362.082 96.7722 361.989 96.8861 361.895C96.8861 361.895 96.8861 361.802 96.8861 361.802 96.8861 361.802 96.8861 361.709 97 361.709 97 361.709 97 361.616 97 361.616 97 361.522 97 361.336 96.8861 361.242 96.6582 360.962 96.3164 360.962 95.9747 361.056 95.9747 361.056 95.9747 361.056 95.9747 361.056L95.633 361.242 88 365.44 88.3418 365.534 89.481 366Z" fill-rule="evenodd"/><path d="M144.571 480.133 144 480 144.143 480.933 145.429 481.333C145.714 481.467 146 481.733 146 482L146 482 146 481.467 145.857 480.533 144.571 480.133Z" fill-rule="evenodd"/><path d="M145.353 479.556 146.529 480 147 479.556 146.882 478.444 146.882 478 145 479.444Z" fill-rule="evenodd"/><path d="M378.111 427.096 378.111 428.345 378.667 475.616 379.556 475.904 380 476 379.333 427.384 378 427C378.111 427.096 378.111 427.096 378.111 427.096Z" fill-rule="evenodd"/><path d="M315.102 320.241 321 322 321 321.586 321 320.759 315 319 315.102 319.414Z" fill-rule="evenodd"/><path d="M378 284 378 284 378 284 351.318 301.495 351.318 302.53C351.318 302.718 351.212 302.906 351 303L351.106 303 377.788 285.599 377.788 284.47C377.788 284.282 377.894 284.094 378 284Z" fill-rule="evenodd"/><path d="M351.002 304 351.002 304C351.002 304 348.748 304 351.002 304 348.748 301.748 351.002 304 351.002 304Z" fill-rule="evenodd"/><path d="M379 284 380 285C379 285 379 285 379 284L379 284Z" fill-rule="evenodd"/><path d="M65.7778 437.188 65.6667 437.188 65.5555 437.188 65.4444 437.188 65.3333 437.188 65.3333 437.188 65 437.094 68.6667 468.624 69.6667 468.906 70 469 66.1111 437 65.7778 437.188 65.7778 437.188Z" fill-rule="evenodd"/><path d="M73.8943 472.281 73.1539 472 41 492.783 41.1057 493.719 41.1057 494 74 472.843Z" fill-rule="evenodd"/><path d="M75.0417 472.278C74.9375 472.555 74.625 472.74 74.3125 472.555 74.3125 472.555 74.3125 472.555 74.3125 472.555L74 472.463 74.1041 473.111 77.8542 507.63 78.6875 507.907 79 508 75.0417 472 75.0417 472C75.0417 472 75.0417 472 75.0417 472 75.1458 472.093 75.0417 472.185 75.0417 472.278Z" fill-rule="evenodd"/><path d="M31 101 20.2308 0 19 0 29.7693 100.716 30.5898 100.905Z" fill-rule="evenodd"/><path d="M138.893 390 65 435.964 65.3213 436.058C65.6426 436.152 65.8567 436.435 65.7496 436.717 65.7496 436.717 65.7496 436.717 65.7496 436.717 65.6426 436.812 65.6426 436.906 65.4284 437L65.4284 437 65.7496 436.812 139 391.319 138.893 390.377 138.893 390Z" fill-rule="evenodd"/><path d="M122.429 361.357 122.429 361.357C122.429 361.357 122.429 361.357 122.429 361.357 122.429 361.446 122.429 361.536 122.429 361.536L122.429 361.536 122.429 361.536C122.429 361.536 122.429 361.536 122.429 361.625 122.429 361.625 122.429 361.714 122.321 361.714L122.321 361.714C122.321 361.714 122.321 361.714 122.214 361.804L122.214 361.804 122 361.982 137 366 137 365.643 136.893 364.839 122.536 361 122.429 361.357Z" fill-rule="evenodd"/><path d="M115.9 358.958 115.9 358.958C115.9 358.863 116 358.863 116 358.768L116.1 358.674 116.2 358.579C116.3 358.579 116.3 358.484 116.4 358.484L116.5 358.484C116.5 358.484 116.6 358.484 116.6 358.484L117 358.579 114.2 326.379 113.4 326.095 113 326 115.9 358.958 115.9 358.958C115.9 359.053 115.9 358.958 115.9 358.958Z" fill-rule="evenodd"/><path d="M117 363.304 116.8 360.696 116.267 360.435C116.133 360.348 116 360.174 116 360L116.267 364 116.467 363.826 117 363.304Z" fill-rule="evenodd"/><path d="M122 363C122 363 124.252 360.748 122 363L122 363 122 363Z" fill-rule="evenodd"/><path d="M116.435 359.917 117.304 360.167 120.783 361 121 360.917 120.891 360 117.196 359.083 116.761 359C116.761 359 116.652 359 116.652 359L116.543 359C116.435 359 116.326 359 116.326 359.083L116.217 359.167 116.109 359.25C116.109 359.333 116 359.333 116 359.417L116 359.417C116 359.5 116 359.5 116 359.583L116 359.583 116 359.583C116 359.667 116.217 359.833 116.435 359.917Z" fill-rule="evenodd"/><path d="M578 425.191 578 425.191C578 425.191 578 425.286 578 425.286 578 425.286 578 425.381 577.904 425.381L577.904 425.381 576.846 426.334 573 512 574.154 512 578 425 578 425C578 425 578 425 578 425.095 578 425.191 578 425.191 578 425.191Z" fill-rule="evenodd"/><path d="M525.43 468.326 525.43 468.326 525.537 468.422C525.645 468.422 525.645 468.519 525.645 468.519 525.645 468.519 525.645 468.615 525.753 468.615 525.753 468.615 525.753 468.711 525.753 468.711 525.753 468.711 525.753 468.807 525.753 468.807L525.753 468.807 525.753 469 576.817 426.059 578 425.096 578 425.096C577.893 425.289 577.57 425.289 577.355 425.289L576.28 425 525 468.134 525.43 468.326Z" fill-rule="evenodd"/><path d="M525.923 468 525.923 468C525.923 468.096 525.923 468.096 525.923 468.193 525.846 468.481 525.615 468.674 525.385 468.578L525.077 468.481 524 512 524.923 512 526 468.289 525.923 468Z" fill-rule="evenodd"/><path d="M318 409.31 318 410.138 323.79 412 324 411.793 324 411.793C324 411.793 324 411.69 324 411.69L324 411.69 324 410.862 318 409 318 409.31Z" fill-rule="evenodd"/><path d="M379.619 372.62 380 372.715 379.048 285.33 379.048 284.57C379.048 284.57 379.048 284.57 379.048 284.475 379.048 284.475 379.048 284.38 379.048 284.38 379.048 284.38 379.048 284.285 379.048 284.285L378.952 284.19 378.857 284.095 378.762 284 378.667 284 378.571 284 378.476 284 378.381 284 378.286 284 378.286 284C378.095 284.095 378 284.285 378 284.475L378 285.615 378.952 373 378.952 373C378.952 372.905 378.952 372.905 378.952 372.81 379.048 372.62 379.333 372.525 379.619 372.62Z" fill-rule="evenodd"/><path d="M379 476.6 379.667 476.9 380 477 380 476.4 379.333 476.1 379 476Z" fill-rule="evenodd"/><path d="M379.424 372.96 379.53 372.96 379.53 372.96 432.682 387C432.363 386.906 432.151 386.626 432.257 386.345 432.257 386.345 432.257 386.345 432.257 386.345 432.363 386.064 432.682 385.877 433 385.97L432.151 385.783 380.167 372.118 379.743 372.024C379.424 371.931 379.106 372.118 379 372.399 379 372.492 379 372.492 379 372.586L379 372.68C379 372.68 379 372.773 379 372.773 379 372.773 379 372.867 379.106 372.867L379.212 372.96 379.424 372.96Z" fill-rule="evenodd"/><path d="M490.679 459 490.572 458.905 490.572 458.905 490.572 458.81C490.572 458.81 490.572 458.715 490.465 458.715 490.465 458.715 490.465 458.62 490.465 458.62 490.465 458.62 490.465 458.525 490.465 458.525 490.465 458.525 490.465 458.43 490.465 458.43 490.465 458.43 490.465 458.43 490.465 458.335 490.465 458.24 490.465 458.335 490.465 458.335 490.465 458.335 490.465 458.24 490.572 458.24L490.679 458.145 490.679 458.145 491 457.955 325.107 411 325.107 411.38C325.107 411.475 325.107 411.57 325 411.665 325.107 411.855 325.107 412.046 325 412.141L378.266 427.158 379.549 427.539 491 459 491 459C490.786 459 490.679 459 490.679 459Z" fill-rule="evenodd"/><path d="M375 474 375 475.625 379.079 476.875 379.605 477C379.211 476.875 378.947 476.5 378.947 476.125 379.079 475.75 379.474 475.5 379.868 475.5 380 475.5 380 475.5 380 475.5L378.947 475.125 375 474Z" fill-rule="evenodd"/><path d="M434.89 387.836 434.78 387.781 434.78 387.781 434.78 387.781C434.78 387.781 434.67 387.726 434.67 387.726 434.67 387.726 434.67 387.671 434.67 387.671 434.67 387.671 434.67 387.617 434.67 387.617 434.67 387.617 434.67 387.562 434.67 387.562 434.67 387.562 434.67 387.562 434.67 387.507L434.67 387.507 434.67 387.452 434.78 387.398 434.78 387.398 435 387.288 434.45 387.233 433.239 387.069 432.799 387.014C432.469 386.959 432.139 387.069 432.029 387.233 431.919 387.398 432.139 387.562 432.469 387.617 432.469 387.617 432.469 387.617 432.469 387.617L435 388 435 388 434.89 387.836Z" fill-rule="evenodd"/><path d="M379.893 475.036C379.573 474.94 379.253 475.036 379.04 475.327 378.933 475.617 379.04 475.907 379.36 476.101 379.36 476.101 379.466 476.101 379.466 476.101L380.319 476.391 497.056 512 501 512 380.213 475.133 379.893 475.036Z" fill-rule="evenodd"/><path d="M467.238 396.184C467.347 395.878 467.673 395.673 468 395.775 468 395.775 468 395.775 468 395.775L467.673 395.673 436.634 387 435.653 387.714C435.436 387.816 435.218 387.918 435 387.816L435 387.816 467.564 397C467.347 396.898 467.129 396.592 467.238 396.184 467.238 396.184 467.238 396.184 467.238 396.184Z" fill-rule="evenodd"/><path d="M278.568 501.239 278.568 501.239C278.676 501.13 278.676 501.022 278.676 501.022L278.676 501.022 279 500.804 268.514 497 267.649 497.761 267.54 497.761C267.54 497.761 267.432 497.761 267.432 497.87 267.432 497.87 267.324 497.87 267.324 497.87L267.108 497.87 267 497.87 278.568 502 278.568 501.565 278.568 501.565C278.568 501.565 278.568 501.457 278.568 501.457L278.568 501.239Z" fill-rule="evenodd"/><path d="M279.563 501.487C279.375 501.681 279.188 501.681 279.062 501.389 279 501.292 279 501.195 279 501L279 501 279 501.389 279.25 512 280 512 279.75 501.292 279.563 501.487Z" fill-rule="evenodd"/><path d="M374 430 374 430 330 462.147 330.323 462.241 330.323 462.241 330.43 462.241 330.538 462.336 330.538 462.336 330.538 462.336 330.646 462.431 330.646 462.526C330.646 462.526 330.646 462.621 330.646 462.621 330.646 462.621 330.646 462.716 330.646 462.716L330.646 462.81 330.646 462.81C330.646 462.81 330.646 462.905 330.538 462.905 330.538 462.905 330.538 463 330.43 463L330.43 463 373.57 431.422 373.57 430.284C373.785 430.095 373.892 430 374 430Z" fill-rule="evenodd"/><path d="M375 430 375 430C376.334 432.252 376.334 430 375 430 376.334 430 375 430 375 430Z" fill-rule="evenodd"/><path d="M41.4 505.473 41.4 505.473C41.3 505.473 41.3 505.473 41.2 505.378 41.2 505.378 41.1 505.378 41.1 505.284 41.1 505.284 41 505.189 41 505.189 41 505.189 41 505.095 41 505.095 41 505.095 41 505.095 41 505L41.8 512 43.0001 512 42.3001 505.851 41.4 505.473Z" fill-rule="evenodd"/><path d="M65.2234 437 65.2234 437 65.3287 437 65.434 437 65.5393 437 65.6446 437C65.7499 436.909 65.8552 436.818 65.9605 436.727 66.0658 436.455 65.9605 436.182 65.6446 436.091 65.6446 436.091 65.6446 436.091 65.6446 436.091L65.3287 436 33 426 33 426.364 33.1053 427.182 64.8021 436.909 65.2234 437Z" fill-rule="evenodd"/><path d="M318.385 416 318 416.308 318.077 417 319 416.231Z" fill-rule="evenodd"/><path d="M330.566 463.291 329.483 463 278.542 500.827 278.217 501.021 278.217 501.021C278.217 501.021 278.108 501.118 278.108 501.118L278 501.215 278 501.312C278 501.312 278 501.409 278 501.409 278 501.506 278 501.7 278.108 501.797 278.325 501.991 278.759 502.088 278.975 501.894L279.192 501.7 331 463.194 331 463.194C331 463.291 330.783 463.388 330.566 463.291Z" fill="#F9AA19" fill-rule="evenodd"/><path d="M18.7841 99.99C18.4603 99.9 18.2444 99.63 18.2444 99.36 18.2444 99.18 18.4603 99 18.6762 99 18.6762 99 18.5682 99 18.5682 99L0 106.83 0 108 19.0001 99.99 18.7841 99.99Z" fill-rule="evenodd"/><path d="M64.8873 113.32C64.7789 113.036 64.3452 112.941 64.0199 113.036 64.0199 113.036 64.0199 113.036 64.0199 113.036L63.3694 113.32 29 129.052 29.2169 129.147 29.2169 129.147 29.3253 129.147 29.4337 129.242C29.4337 129.242 29.4337 129.242 29.5421 129.337 29.5421 129.337 29.6505 129.431 29.6505 129.431L29.6505 129.526C29.6505 129.526 29.6505 129.621 29.6505 129.621L29.6505 129.621 29.6505 130 64.4536 114.173 64.6704 114.078C64.9956 113.888 65.1041 113.604 64.8873 113.32 64.8873 113.32 64.8873 113.32 64.8873 113.32Z" fill-rule="evenodd"/><path d="M28.2619 129.72C28.2619 129.44 28.4728 129.16 28.7891 129.16 28.8946 129.16 28.8946 129.16 29.0001 129.16L29.0001 129.16 28.7891 129.067 0 123 0 124.12 28.2619 130 28.2619 129.72Z" fill-rule="evenodd"/><path d="M525.919 468.191C525.919 468.191 525.919 468.093 525.812 468.093 525.812 467.995 525.704 467.995 525.704 467.995L525.597 467.897 525.597 467.897 525.274 467.799 491.506 458 490.645 458.686C490.43 458.882 490.215 458.882 490 458.784L490 458.784 524.736 468.877 525.167 468.975C525.489 469.073 525.812 468.877 525.919 468.583 525.919 468.485 525.919 468.485 525.919 468.387 526.027 468.289 526.027 468.289 525.919 468.191 526.027 468.191 526.027 468.191 525.919 468.191Z" fill-rule="evenodd"/><path d="M490.106 458.01 490.106 458.01 490.106 458.01C490 458.105 490 458.2 490 458.2 490 458.2 490 458.295 490 458.295 490 458.295 490 458.39 490 458.39 490 458.39 490 458.485 490 458.485 490 458.485 490 458.58 490 458.58 490 458.58 490 458.676 490.106 458.676L490.106 458.771 490.106 458.771 490.212 458.866C490.212 458.866 490.318 458.866 490.318 458.961 490.53 459.056 490.742 458.961 490.954 458.866L491.802 458.2 543 416.38 542.682 416.285 541.622 416 490.53 457.82 490.106 458.01Z" fill-rule="evenodd"/><path d="M435.321 386.993 435.107 387.182 435.107 387.182 435 387.276 435 387.371C435 387.371 435 387.465 435 387.465 435 387.465 435 387.56 435 387.56 435 387.56 435 387.654 435 387.654 435 387.654 435 387.749 435 387.749 435 387.749 435 387.843 435.107 387.843L435.107 387.843 435.107 387.843 435.214 387.938 435.321 387.938C435.535 388.033 435.749 388.033 435.964 387.843L436.927 387.182 488 349.662 487.679 349.567 487.679 349.567C487.679 349.567 487.572 349.567 487.572 349.473L487.465 349.378 487.358 349.284 487.251 349.189C487.251 349.189 487.251 349.094 487.251 349.094L487.251 349.284 487.251 349 436.285 386.426 435.321 386.993Z" fill-rule="evenodd"/><path d="M487.216 349.977C487.108 349.977 487.108 349.977 487 349.977L487 349.977 487.324 350.066 538.057 361.699 539.245 361.965C539.46 362.054 539.676 361.965 539.892 361.788 539.892 361.788 540 361.699 540 361.699 540 361.699 540 361.61 540 361.61 540 361.61 540 361.61 540 361.61 540 361.61 540 361.61 540 361.521 540 361.521 540 361.432 540 361.432 540 361.432 540 361.344 540 361.344 540 361.344 540 361.255 540 361.255L539.892 361.166 539.784 361.077 539.676 360.988 539.568 360.9 539.568 360.9 487.864 349 487.864 349.355C487.864 349.71 487.54 349.977 487.216 349.977 487.216 349.977 487.216 349.977 487.216 349.977Z" fill-rule="evenodd"/><path d="M34.0001 176.56 34.0001 176.121 0 169 0 170.055 33.0347 177Z" fill-rule="evenodd"/><path d="M34.7853 177.857C34.4632 177.857 34.1411 177.667 34.1411 177.381L34.1411 177 33.0675 177.476 0 193.667 0 195 35.0001 177.857C35.0001 177.857 34.8927 177.857 34.7853 177.857Z" fill-rule="evenodd"/><path d="M35 178 35 178C35 178 35 177 36 177 36 177 35 177 35 178L35 178Z" fill-rule="evenodd"/><path d="M30.0977 129.468C30.0977 129.468 30.0977 129.374 30.0977 129.374L30.0977 129.281C30.0977 129.281 29.9997 129.187 29.9997 129.187 29.9997 129.187 29.9997 129.094 29.9017 129.094L29.8036 129 29.7055 129C29.6075 129 29.6075 129 29.5095 129 29.2153 129 28.9212 129.281 29.0192 129.561L29.0192 129.935 33.8235 175.766 33.8235 176.14 33.8235 176.514C33.8235 176.795 34.1176 177.075 34.5098 176.982 34.6078 176.982 34.7059 176.982 34.7059 176.888L34.7059 176.888C34.7059 176.888 34.8039 176.888 34.8039 176.795 34.8039 176.795 34.902 176.795 34.902 176.701 34.902 176.701 35 176.608 35 176.608L35 176.514C35 176.421 35 176.421 35 176.327L35 176.327 35 176.327 30.0977 129.655 30.0977 129.468 30.0977 129.468Z" fill-rule="evenodd"/><path d="M117 325.717 98.1458 117 97.8333 117.189 97.7292 117.189 97.625 117.189 97.4167 117.189 97 117.094 115.854 325.811 116.479 326 117 325.717Z" fill-rule="evenodd"/><path d="M61.8 109.634 61.2667 109.453 61.2667 109.453 61.2 109.453C61.2 109.453 61.1334 109.453 61.1334 109.362 61.1334 109.362 61.0667 109.272 61.0667 109.272L61 109.181 61 109.181C61 109.181 61 109.09 61 109.09 61 109.09 61 109 61 109L61 109 61 109 61.2667 112.53C61.2667 112.801 61.4667 113.073 61.6667 112.982 61.8667 112.982 62 112.801 62 112.53 62 112.439 62 112.439 62 112.349L61.8 109.634Z" fill-rule="evenodd"/><path d="M128.526 101.283C128.737 101.566 128.526 101.849 128.316 102.038 128.316 102.038 128.316 102.038 128.316 102.038L128.105 102.132 128.737 102.226 148 106 148 105.623 147.895 104.868 128.105 101 128 101C128.211 101 128.421 101.094 128.526 101.283Z" fill-rule="evenodd"/><path d="M196.32 114.241C196.32 114.241 196.427 114.241 196.427 114.241L196.533 114.241C196.533 114.241 196.64 114.336 196.64 114.336 196.64 114.336 196.64 114.431 196.747 114.431 196.747 114.431 196.747 114.526 196.747 114.526 196.747 114.526 196.747 114.621 196.747 114.621L196.747 114.621 196.747 115 260 83.3276 260 82.3793 260 82 196 114.052 196.213 114.052 196.32 114.241Z" fill-rule="evenodd"/><path d="M241 59.1304 259 62 259 61.5653 259 60.8696 241 58 241 58.4348Z" fill-rule="evenodd"/><path d="M92 95.0001 97 93.0834 96.8889 92.3333 96.8889 92 92.3333 93.75 92.4444 94.5C92.4444 94.6667 92.4444 94.7501 92.2223 94.8334 92.1111 94.9167 92.1111 94.9167 92 95.0001Z" fill-rule="evenodd"/><path d="M97 117C96.7877 117 96.5752 116.905 96.4691 116.714 96.2566 116.429 96.3629 116.143 96.6814 115.952 96.6814 115.952 96.6814 115.952 96.6814 115.952L96.8938 115.857 62.9115 109 61.4248 109.762C61.3186 109.857 61.1062 109.857 61 109.762L61 109.762 61.8495 109.952 96.4691 117 97 117 97 117Z" fill-rule="evenodd"/><path d="M126.679 102.566 126.679 102.566 126.679 102.566C126.679 102.472 126.679 102.472 126.679 102.377L126.679 102.283C126.679 102.283 126.679 102.189 126.786 102.189 126.786 102.189 126.786 102.094 126.893 102.094 126.893 102.094 127 102.094 127 102L97.5751 115.868 97.3611 115.962C97.0401 116.057 96.9331 116.434 97.0401 116.717 97.0401 116.717 97.0401 116.717 97.0401 116.717 97.1472 116.906 97.3611 117 97.5751 117L97.6821 117 97.7891 117 97.8961 117 98.2172 116.811 126.679 103.415 126.679 102.566Z" fill-rule="evenodd"/><path d="M126.443 101.308C126.776 101.308 127.109 101.462 127.109 101.692 127.109 101.692 127.109 101.692 127.109 101.692L127.109 102 127.441 101.923 127.663 101.846C127.996 101.692 128.106 101.462 127.885 101.231 127.885 101.231 127.885 101.231 127.885 101.231 127.774 101.077 127.552 101 127.33 101L127.219 101 127.109 101 126.998 101 126.998 101 126.443 101.308 126.111 101.308C126.111 101.308 126 101.308 126 101.385 126.222 101.308 126.333 101.308 126.443 101.308Z" fill-rule="evenodd"/><path d="M202.975 229.81 204 229.334 196.253 115.38 196.253 115 196.253 115C196.253 115.095 196.253 115.095 196.253 115.19 196.139 115.476 195.797 115.666 195.456 115.666L195 115.571 202.747 230 202.975 229.81Z" fill-rule="evenodd"/><path d="M91.9579 94.5246C92.3053 94.4295 92.6527 94.5246 92.8843 94.8099 92.8843 94.9049 92.8843 94.9049 93.0001 95.0001L92.8843 94.1442 83.3895 0 82 0 91.4948 94.7148 91.9579 94.5246Z" fill-rule="evenodd"/><path d="M93.0004 95C93.0004 96 92.5 96 92 96L92 96C92.5 96 92.5 96 93.0004 95Z" fill-rule="evenodd"/><path d="M114.18 34.9049 115 34.5245 112.231 0 111 0 113.872 35Z" fill-rule="evenodd"/><path d="M320.812 321C320.812 320.716 321.109 320.432 321.406 320.432 321.703 320.432 322 320.716 322 321 322 321 322 321 322 321L313.188 0 312 0 320.713 320.242 320.713 321Z" fill-rule="evenodd"/><path d="M489.924 261.191C489.924 261.191 489.924 261.286 489.924 261.286L489.824 261.382C489.824 261.382 489.824 261.478 489.723 261.478L489.723 261.478 488.714 262.241 487 349.141 487 349.427 487 349.523C487 349.523 487 349.618 487 349.618L487.101 349.714 487.202 349.809 487.303 349.905C487.303 349.905 487.403 349.905 487.403 350 487.504 350 487.504 350 487.605 350 487.908 350 488.21 349.714 488.21 349.427 488.21 349.427 488.21 349.427 488.21 349.427L488.21 348.95 489.924 261 489.924 261C490.025 261.095 490.025 261.191 489.924 261.191Z" fill-rule="evenodd"/><path d="M436.106 297.03 436.106 297.03 436.106 297.03 436 297.216 436 297.31C436 297.31 436 297.403 436 297.403 436 297.497 436 297.683 436.106 297.777 436.318 298.057 436.741 298.057 436.953 297.87 436.953 297.87 436.953 297.87 436.953 297.87L437.165 297.683 488.941 262.493 490 261.747 490 261.747C489.894 261.84 489.788 261.933 489.576 261.84 489.259 261.84 488.941 261.56 488.941 261.28 488.941 261.28 488.941 261.28 488.941 261.28L488.941 261 436.424 296.656 436.106 297.03Z" fill-rule="evenodd"/><path d="M41.872 504.506C41.872 504.81 41.6541 505.114 41.327 505.114 41.327 505.114 41.327 505.114 41.327 505.114 41.218 505.114 41.109 505.114 41 505.013L41.109 505.013 42.0901 505.418 60.4029 512 64.0001 512 41.9811 504 41.872 504.506Z" fill-rule="evenodd"/><path d="M17 305.283 16.0317 305 0 313.679 0 315 17 305.755Z" fill-rule="evenodd"/><path d="M202 502.189 201 502.849 201.667 512 203 512 202.222 502Z" fill-rule="evenodd"/><path d="M147.286 483.388 146.214 483 146.107 483C146.214 483 146.322 483.097 146.429 483.194 146.643 483.485 146.536 483.775 146.322 483.969 146.322 483.969 146.322 483.969 146.322 483.969L146 484.163 199.821 502 200.678 501.321 201 501.128 147.286 483.388Z" fill-rule="evenodd"/><path d="M146.746 483.954C147.064 483.763 147.064 483.382 146.852 483.191 146.852 483.191 146.852 483.191 146.852 483.191 146.746 483.095 146.64 483 146.534 483L146.428 483 146.322 483 146.216 483 146.11 483.095 146.004 483.095 146.004 483.095 104 512 106.121 512 146.64 484.24 146.746 483.954Z" fill-rule="evenodd"/><path d="M320.571 416.308 319.714 416.077 319.714 416.077 319.393 416 318 416.769 318 417 318 417 318 417.692 318 418 321 416.231 321 416.231C320.893 416.308 320.786 416.385 320.571 416.308Z" fill-rule="evenodd"/><path d="M201.3 501 201 501.182C201.2 501 201.6 501 201.8 501.182 202 501.364 202 501.727 201.8 501.909 201.8 501.909 201.7 502 201.7 502L202 501.818 202 501.818 202 501.091 201.3 501 201.3 501Z" fill-rule="evenodd"/><path d="M204 501.001 203 500 204 501.001 204 501.001Z" fill-rule="evenodd"/><path d="M201.682 502.047C201.996 501.857 202.1 501.573 201.891 501.288 201.682 501.004 201.368 500.909 201.055 501.099 201.055 501.099 200.95 501.099 200.95 501.193L200.114 501.857 186 512 187.986 512 200.741 502.805 201.682 502.047Z" fill-rule="evenodd"/><path d="M92.0001 463.474 91.8462 462.737 90.4616 462.421 90.4616 462.421 90.3078 462.316C90.3078 462.316 90.1538 462.21 90.1538 462.21L90.1538 462.21 90.1538 462.21C90.1538 462.21 90.1538 462.105 90 462.105 90 462.105 90 462 90 462L90 462 90 462 90.3078 464C90.3078 464 90.3078 463.895 90.3078 463.895 90.3078 463.895 90.3078 463.79 90.3078 463.79L90.3078 463.79C90.3078 463.79 90.3078 463.684 90.4616 463.684 90.4616 463.684 90.4616 463.579 90.4616 463.579L90.6154 463.474 90.7692 463.474 90.9231 463.474 91.077 463.474 91.2308 463.474 91.3847 463.474 91.3847 463.474 92.0001 463.474Z" fill-rule="evenodd"/><path d="M90.6394 461.62 91.7049 462 142 429.235 141.893 428.285 141.893 428 90 461.715 90 461.715C90.2132 461.62 90.4262 461.62 90.6394 461.62Z" fill-rule="evenodd"/><path d="M145.248 482 145.463 482 145.57 482 145.678 482C145.678 482 145.785 482 145.785 481.909 145.785 481.909 145.893 481.909 145.893 481.817 145.893 481.817 146 481.726 146 481.635L146 481.635 146 481.635C146 481.543 146 481.543 146 481.452 146 481.452 146 481.452 146 481.36 146 481.178 145.785 480.995 145.57 480.904L144.604 480.629 91.3223 464.091 91 464 91 464C91.2149 464.091 91.4297 464.274 91.4297 464.457L91.5371 465.279 145.248 482 145.248 482 145.248 482Z" fill-rule="evenodd"/><path d="M90 465.001C90 465.001 90 464 91 464 90 464 90 464 90 465.001L90 465.001Z" fill-rule="evenodd"/><path d="M90 462.854C90 462.854 90 462.945 90.1068 462.945L90.1068 463.035C90.1068 463.035 90.2136 463.126 90.2136 463.126L90.3204 463.217 90.3204 463.217 91.2815 463.489 144.253 479.909 144.68 480C144.359 479.909 144.146 479.546 144.253 479.274 144.359 479.002 144.68 478.821 145 478.911 145 478.911 145 478.911 145 478.911L144.68 478.821 91.9223 462.401 90.8543 462.038C90.6408 461.947 90.4272 462.038 90.2136 462.128L90.1068 462.219 90.1068 462.219C90.1068 462.219 90.1068 462.31 90 462.31L90 462.31 90 462.31 90 462.31C90 462.31 90 462.401 90 462.401L90 462.491 90 462.491C90.1068 462.673 90 462.763 90 462.854Z" fill-rule="evenodd"/><path d="M320 414.583 320.296 414.667 320.296 414.667 321.084 414.917C321.182 414.917 321.281 415 321.281 415L324.532 412.833 324.729 412.667 324.729 412.667 324.828 412.583 324.926 412.5C325.025 412.333 325.025 412.167 324.926 412.083 324.828 412.25 324.631 412.333 324.434 412.333 324.236 412.333 323.941 412.25 323.842 412L323.645 412.167 320 414.583Z" fill-rule="evenodd"/><path d="M320.533 415.447C320.467 415.671 320.267 415.82 320 415.745L320 415.745 320.533 415.969C320.667 416.044 320.8 415.969 320.933 415.895L321 415.82C321 415.82 321 415.745 321 415.745L321 415.745C321 415.745 321 415.745 321 415.671 321 415.671 321 415.596 321 415.596 321 415.596 321 415.522 321 415.522L321 415.447C321 415.447 321 415.373 320.933 415.373L320.867 415.298 320.867 415.298C320.8 415.224 320.8 415.224 320.733 415.224L320.2 415 320.2 415C320.467 415 320.533 415.224 320.533 415.447Z" fill-rule="evenodd"/><path d="M210 290.955 130.857 271 130 271.475 130 271.95 209.465 292 209.465 291.62C209.465 291.62 209.465 291.62 209.465 291.525 209.465 291.525 209.465 291.43 209.465 291.43 209.465 291.43 209.465 291.335 209.465 291.335 209.465 291.335 209.465 291.24 209.572 291.24L209.679 291.145 209.786 291.145 210 290.955Z" fill-rule="evenodd"/><path d="M310 466.6C310 466.6 310 466.7 310 466.7 310 466.7 310 466.7 310 466.8L310 466.8 310 466.8C310 466.8 310 466.9 310 466.9L310 467 310 467 310 467 319 459.9 318.686 459.8 318.686 459.8 318.581 459.7 318.477 459.7 318.372 459.6 318.267 459.5C318.267 459.5 318.267 459.4 318.267 459.4 318.267 459.4 318.267 459.3 318.267 459.3L318.267 459.3 318.267 459 310.209 465.3 310.209 466.5 310 466.6Z" fill-rule="evenodd"/><path d="M302.102 255.262 302.102 255.262 302.204 255.262C302.204 255.262 302.307 255.262 302.307 255.354 302.307 255.354 302.409 255.354 302.409 255.446L302.511 255.538 302.511 255.631C302.511 255.631 302.511 255.723 302.511 255.723L302.511 255.723 302.511 256 311 250.739 311 250.185 310.182 250 302 255.169 302.102 255.262Z" fill-rule="evenodd"/><path d="M318.889 459.33C318.889 459.661 318.667 459.991 318.222 459.991 318.222 459.991 318.222 459.991 318.222 459.991 318.111 459.991 318.111 459.991 318 459.991L318 459.991 318.333 460.101 329 463.624 330.111 463.954C330.333 464.065 330.556 463.954 330.778 463.844 330.778 463.844 330.889 463.734 330.889 463.734 330.889 463.734 330.889 463.624 331 463.624L331 463.624 331 463.514C331 463.514 331 463.404 331 463.404 331 463.404 331 463.294 331 463.294L331 463.184 330.889 463.074 330.778 462.964 330.667 462.854 330.556 462.854 330.556 462.854 330.222 462.743 318.889 459 318.889 459.33Z" fill-rule="evenodd"/><path d="M239.001 12.0018 239.001 12.0018 239.001 12.0018C237.666 9.74823 237.666 12.0018 239.001 12.0018Z" fill-rule="evenodd"/><path d="M187.643 3.34781C187.75 3.60869 187.643 3.86956 187.321 4.0435 187.321 4.0435 187.321 4.0435 187.321 4.0435L187.107 4.0435 235.857 11 237.571 10.3044 237.571 10.3044 237.679 10.3044 237.786 10.3044 237.786 10.3044 237.893 10.3044 238 10.3044 238 10.3044 187.107 3 187 3C187.429 3.08694 187.536 3.17394 187.643 3.34781Z" fill-rule="evenodd"/><path d="M143.578 53.6117 143.578 53.6117 143.578 53.6117C143.578 53.5146 143.578 53.5146 143.578 53.4175 143.578 53.4175 143.578 53.4175 143.578 53.3204 143.578 53.3204 143.578 53.2233 143.684 53.2233L143.684 53.1263 143.789 53.0291 144 52.9321 95.2658 44 94 44.5825 94 44.9709 143.578 54 143.578 53.6117Z" fill-rule="evenodd"/><path d="M144 53.2456 144 53.2456C144 53.2456 144.106 53.1513 144.213 53.1513 144.532 53.1513 144.851 53.3399 144.851 53.6228 144.851 53.6228 144.851 53.6228 144.851 53.6228L144.851 54 236.681 12.4145 236.681 11.5658C236.681 11.3772 236.787 11.1886 237 11L237 11 235.297 11.8487 144.213 53.1513 144 53.2456Z" fill-rule="evenodd"/><path d="M122.333 360.338C122.556 360.338 122.778 360.432 122.889 360.622 123 360.716 123 360.811 123 361 123 361 123 361 123 360.905L123 360.905 123 360.527 119.667 326 119.333 326.189 119 326.378 122.333 360.338Z" fill-rule="evenodd"/><path d="M149.108 106.231 195.814 115.871 196.245 115.974C196.569 116.076 196.892 115.871 197 115.461 197 115.359 197 115.359 197 115.256 197 115.256 197 115.153 197 115.153 197 115.153 197 115.051 197 115.051 197 115.051 197 114.948 196.892 114.948 196.892 114.948 196.784 114.846 196.784 114.846L196.676 114.846C196.676 114.846 196.569 114.846 196.569 114.846L196.569 114.846 196.353 114.846 149.216 105 149 105 149 105.41 149.108 106.231Z" fill-rule="evenodd"/><path d="M158.891 254 159.193 253.811 160 253.337 149.311 106.757 149.21 106C149.21 106.284 149.008 106.568 148.605 106.568 148.303 106.568 148 106.379 148 106.095 148 106.095 148 106.095 148 106.095L148 106.473 158.891 254Z" fill-rule="evenodd"/><path d="M144 53.3008C144 53.3008 144 53.3008 144 53.3008 144 53.3949 144 53.489 144 53.5831L144 53.5831 144 53.5831 144 54.0537 147.7 104.683 147.8 105.435C147.8 105.718 148.1 106 148.4 106 148.4 106 148.4 106 148.4 106 148.7 106 149 105.718 149 105.435L149 104.871 145.3 53.8654 145.3 53.489C145.3 53.2067 145 52.9244 144.7 53.0184 144.7 53.0184 144.7 53.0184 144.7 53.0184 144.6 53.0184 144.5 53.0184 144.4 53.1125L144.3 53.2067C144.1 53.2067 144.1 53.2067 144 53.3008Z" fill-rule="evenodd"/><path d="M374.787 476.768 374.787 476.768 374.68 476.672 374.574 476.672 374.467 476.576C374.467 476.576 374.467 476.48 374.361 476.48 374.361 476.48 374.361 476.384 374.361 476.384 374.361 476.384 374.361 476.288 374.361 476.288L374.361 476.288 374.361 476 328 512 329.812 512 375 476.96 374.787 476.768Z" fill-rule="evenodd"/><path d="M474 507.189 473.429 507 468 512 469.619 512 473.905 508.038Z" fill-rule="evenodd"/><path d="M246.575 490 287 460.844 286.685 460.75 286.685 460.75 286.58 460.656 286.475 460.656C286.475 460.656 286.475 460.656 286.37 460.562 286.37 460.562 286.265 460.469 286.265 460.469 286.265 460.469 286.265 460.469 286.265 460.375 286.265 460.375 286.265 460.281 286.265 460.281L286.265 460.281 286.265 460 245 489.813 245 489.813 245.105 489.813 245.21 489.719C245.315 489.719 245.315 489.625 245.42 489.625L245.525 489.625C245.63 489.625 245.63 489.625 245.735 489.625L246.575 490Z" fill-rule="evenodd"/><path d="M277.786 250.382C277.786 250.382 277.786 250.382 277.786 250.382L277.786 250.382 277.893 250.191 277.893 250.095 278 250 278 250 278 250 209.321 291.141 209.107 291.332 209 291.332C209.107 291.236 209.214 291.236 209.429 291.236 209.75 291.236 210.071 291.427 210.071 291.714L210.071 292 277.786 251.432 277.786 250.382C277.786 250.382 277.786 250.382 277.786 250.382Z" fill-rule="evenodd"/><path d="M210.268 291.494C210.268 291.209 209.951 290.924 209.634 291.019 209.528 291.019 209.317 291.114 209.211 291.114L209.106 291.209C209.106 291.209 209.106 291.304 209 291.304 209 291.304 209 291.399 209 291.399 209 291.399 209 291.494 209 291.494 209 291.494 209 291.494 209 291.589L209 291.969 222.732 512 224 512 210.268 291.874 210.268 291.494Z" fill-rule="evenodd"/><path d="M301.167 256.588C301.167 256.279 301.376 255.971 301.792 255.971 301.792 255.971 301.792 255.971 301.792 255.971 301.896 255.971 301.896 255.971 302 255.971L302 255.971 301.688 255.868 279.104 250 279 250C279.312 250 279.52 250.309 279.52 250.515L279.52 251.338 301.167 257 301.167 256.588Z" fill-rule="evenodd"/><path d="M286.817 460C286.817 459.905 286.817 459.905 286.817 459.81 286.925 459.525 287.247 459.335 287.57 459.43 287.57 459.43 287.57 459.43 287.57 459.43L288 459.525 279.29 251.234 279.29 250.475C279.29 250.19 279.075 250 278.753 250L278.538 250 278.43 250 278.43 250 278.323 250 278.215 250.095 278.108 250.19 278.108 250.285 278 250.38C278 250.38 278 250.475 278 250.475 278 250.475 278 250.57 278 250.57L278 251.614 286.71 459.81 286.817 460 286.817 460Z" fill-rule="evenodd"/><path d="M301 256.474 301 256.854 308.846 466.146 309.769 466.431 309.769 466.431C309.769 466.431 309.885 466.431 309.885 466.526L310 466.621 310 466.621 310 466.715C310 466.715 310 466.81 310 466.81 310 466.81 310 466.905 310 466.905 310 466.905 310 467 310 467L310 467 310 467 310 465.862 302.154 256.759 302.154 256.474 302.154 256.474C302.154 256.474 302.154 256.379 302.154 256.379L302.154 256.285 302.039 256.19C302.039 256.19 302.039 256.095 301.923 256.095 301.923 256.095 301.808 256.095 301.808 256L301.692 256C301.577 256 301.577 256 301.462 256 301.231 256 301 256.285 301 256.474Z" fill-rule="evenodd"/><path d="M310 466C311.334 466 311.334 468.252 310 466L310 466 310 466Z" fill-rule="evenodd"/><path d="M311 467 310 468.001C310 468.001 310 468.001 311 467L311 467Z" fill-rule="evenodd"/><path d="M310 467.19 310 467.19C309.785 467.284 309.569 467.379 309.353 467.284L308.276 467 267 496.862 267.323 496.957C267.647 497.052 267.862 497.336 267.754 497.716 267.754 497.716 267.754 497.716 267.754 497.716 267.754 497.81 267.647 497.905 267.539 498L267.647 498 268.509 497.336 310 467.19 310 467.19Z" fill-rule="evenodd"/><path d="M282.385 204.096 282.385 204.096 282.385 204.096C282.385 204.193 282.385 204.289 282.269 204.289 282.269 204.289 282.269 204.385 282.154 204.385L282.039 204.482 281 205.059 282.615 242.711 283.538 242.904 284 243 282.269 204 282.269 204 282.269 204C282.385 204 282.385 204.096 282.385 204.096Z" fill-rule="evenodd"/><path d="M233 231.811C233.107 231.716 233.322 231.621 233.537 231.716L234.934 232 280.926 205.853 281.893 205.284 282 205.189C281.893 205.284 281.678 205.379 281.463 205.284L280.066 205 233 231.811 233 231.811Z" fill-rule="evenodd"/><path d="M318 414.345 318 414.345 318 415.266 318.615 415.496 319.6 415.842 319.969 415.957 319.969 415.957C320.338 416.072 320.708 415.957 320.954 415.612 321.077 415.266 320.954 414.921 320.585 414.691 320.585 414.691 320.462 414.691 320.462 414.691L320.462 414.691 320.092 414.576 318 414 318 414.345Z" fill-rule="evenodd"/><path d="M309.258 466.959C309.47 467.057 309.682 466.959 309.894 466.862L309.894 466.862 309.894 466.764 310 466.666 310 466.666 310 466.666C310 466.666 310 466.666 310 466.568 310 466.568 310 466.47 310 466.47 310 466.47 310 466.372 310 466.372 310 466.372 310 466.274 310 466.274 310 466.274 310 466.176 310 466.176 310 466.176 310 466.078 309.894 466.078L309.788 465.98C309.788 465.98 309.682 465.98 309.682 465.882L309.682 465.882 308.834 465.588 288.166 459.123 287.742 459.025C287.424 458.928 287.106 459.123 287 459.417 287 459.417 287 459.417 287 459.417 287 459.515 287 459.515 287 459.613 287 459.613 287 459.711 287 459.711 287 459.711 287 459.711 287 459.809 287 459.809 287.106 459.907 287.106 459.907 287.106 459.907 287.106 459.907 287.212 460.005L287.318 460.005 287.424 460.103 287.424 460.103 287.742 460.201 308.304 466.666 309.258 466.959Z" fill-rule="evenodd"/><path d="M267.428 498 267.534 498C267.534 498 267.641 498 267.641 498 267.641 498 267.748 498 267.748 497.907 267.855 497.814 267.961 497.721 267.961 497.628 268.068 497.349 267.961 497.07 267.534 496.884 267.534 496.884 267.534 496.884 267.534 496.884L267.214 496.791 246.282 490.279 245.214 490C245.107 490 245.107 490 245 490 245.32 490 245.534 490.279 245.641 490.465L245.748 491.302 267.107 497.907 267.214 497.907 267.428 498Z" fill-rule="evenodd"/><path d="M4.59185 300.906 5 301 0 260 0 270.039 3.67353 300.625Z" fill-rule="evenodd"/><path d="M147.428 482.964C147.321 482.964 147.214 482.964 147 482.868L147.107 482.964 147.428 482.964 201.287 500.807 201.929 501 201.929 500.614C201.929 500.325 202.143 500.036 202.572 500.036 202.572 500.036 202.572 500.036 202.572 500.036 202.679 500.036 202.786 500.036 203 500.132L202.893 500.132 202.893 500.132 147.964 482 147.964 482.386C147.964 482.675 147.75 482.964 147.428 482.964Z" fill-rule="evenodd"/><path d="M203 500 203 500C203 500 204 501.001 204 501.001L203 500Z" fill-rule="evenodd"/><path d="M245.565 490.47C245.565 490.188 245.174 490 244.783 490L244.652 490C244.522 490 244.522 490 244.391 490.094L244.261 490.188C244.261 490.188 244.13 490.282 244.13 490.282 244.13 490.282 244.13 490.282 244.13 490.376L244 490.47 244 490.47C244 490.47 244 490.47 244 490.564L244 490.564C244 490.564 244 490.658 244 490.658L244 490.658 245.435 512 247 512 245.565 491.504 245.565 490.47Z" fill-rule="evenodd"/><path d="M203.263 500.48 203.263 500.48C203.263 500.384 203.263 500.384 203.263 500.288L203.263 500.192 203.263 500.192C203.263 500.192 203.158 500.096 203.158 500.096L203.053 500.096 203.053 500.096C202.947 500 202.842 500 202.632 500 202.316 500 202 500.288 202 500.576 202 500.576 202 500.576 202 500.576L202 500.96 202 501.728 202.737 512 204 512 203.263 500.576C203.263 500.576 203.263 500.48 203.263 500.48Z" fill-rule="evenodd"/><path d="M475 506 475 506 476 507.001 475 506Z" fill-rule="evenodd"/><path d="M476 506 476 506 476 506C476 506.105 476 506.105 476 506.211 475.846 506.526 475.385 506.737 474.769 506.632L474.154 506.526 474.154 507.579 474 512 475.846 512 476 506 476 506Z" fill-rule="evenodd"/><path d="M68.2704 469.238C68.3746 468.952 68.6874 468.762 69.0001 468.857 69.0001 468.857 69.0001 468.857 69.0001 468.857L68.0619 468.571 37 458 37 458.381 37.1042 459.333 68.5832 470C68.2704 469.905 68.1662 469.619 68.2704 469.238 68.2704 469.238 68.2704 469.238 68.2704 469.238Z" fill-rule="evenodd"/><path d="M69.036 469.478C68.9399 469.765 69.036 470.052 69.3246 470.147 69.3246 470.147 69.3246 470.147 69.3246 470.147L73.2685 471.582 73.9419 471.869 74.2305 471.964C74.5191 472.06 74.8077 471.964 75.0001 471.677 75.0001 471.677 75.0001 471.677 75.0001 471.677 75.0001 471.582 75.0001 471.486 75.0001 471.295L75.0001 471.295C75.0001 471.295 75.0001 471.199 75.0001 471.199 75.0001 471.199 75.0001 471.104 74.9038 471.104L74.9038 471.104 74.8077 471.008 74.7115 470.912 74.7115 470.912 74.7115 470.912 69.998 469.096 69.7094 469C69.5171 469.096 69.1323 469.191 69.036 469.478 69.036 469.478 69.036 469.478 69.036 469.478Z" fill-rule="evenodd"/><path d="M374.667 474.424C374.833 474.424 375 474.712 375 475 375 475 375 475 375 475L375 474.616 374.667 430.864 374.667 430.576C374.667 430.576 374.667 430.48 374.667 430.48 374.667 430.48 374.667 430.384 374.667 430.384L374.611 430.288 374.556 430.192 374.5 430.096 374.444 430 374.389 430C374.389 430 374.333 430 374.333 430L374.278 430 374.222 430 374.167 430C374.056 430.096 374 430.288 374 430.48L374 431.631 374.278 474.808C374.333 474.712 374.5 474.424 374.667 474.424Z" fill-rule="evenodd"/><path d="M374.667 475.587 375 475.669 375 474.43C375 474.182 374.75 473.934 374.417 474.016 374.167 474.016 374 474.182 374 474.43L374 475.752 374 476 374 476C374 475.917 374 475.917 374 475.835 374.083 475.587 374.333 475.421 374.667 475.587 374.667 475.587 374.667 475.587 374.667 475.587Z" fill-rule="evenodd"/><path d="M120.636 361.541 120.636 361 120.455 361.108 117.727 363.27 117 363.919C117.273 363.703 117.545 363.811 117.727 364.135 117.909 364.46 117.818 364.784 117.545 365L121 362.189C120.818 362.081 120.727 361.865 120.636 361.541Z" fill-rule="evenodd"/><path d="M122 361 122.167 361.846C122.167 361.923 122.167 361.923 122.167 362L122.333 362 122.667 361.846 122.667 361.846 122.667 361.846 122.833 361.769C122.833 361.769 122.833 361.692 123 361.692L123 361.538 123 361.538C123 361.538 123 361.462 123 361.462 123 361.385 123 361.308 122.833 361.154 122.667 361.077 122.333 361 122 361Z" fill-rule="evenodd"/><path d="M117.677 365.003C117.996 364.821 118.102 364.458 117.89 364.276 117.677 364.004 117.253 363.913 117.04 364.095L117.04 364.095 116.722 364.276 106 370.546 106.318 370.637 107.486 371 117.677 365.003Z" fill-rule="evenodd"/><path d="M322.75 365.657C322.375 365.657 322 365.375 322 365.094 322 365.094 322 365.094 322 365.094L322 366.22 323.5 410.781 323.5 411.531 323.5 411.531C323.5 411.531 323.5 411.625 323.5 411.625L323.5 411.625C323.625 411.812 323.875 412 324.25 412 324.5 412 324.75 411.906 324.875 411.719 324.875 411.625 325 411.531 325 411.437L325 410.968 323.375 365C323.375 365.375 323.125 365.657 322.75 365.657Z" fill-rule="evenodd"/><path d="M322.5 364.156 322.5 364.437C322.5 364.719 322.875 365 323.25 365 323.25 365 323.25 365 323.25 365 323.625 365 324 364.719 324 364.437L322.5 321.563C322.5 321.281 322.125 321 321.75 321 321.375 321 321 321.281 321 321.563 321 321.563 321 321.563 321 321.563L321 321.938 322.5 364.156Z" fill-rule="evenodd"/><path d="M510.731 407.577C510.627 407.865 510.313 408.058 510 407.962 510 407.962 510 407.962 510 407.962L541.642 416.712 542.687 417C542.373 416.904 542.165 416.615 542.269 416.327 542.373 416.039 542.687 415.846 543 415.942L510.731 407.096 510.313 407C510.627 407 510.835 407.288 510.731 407.577Z" fill-rule="evenodd"/><path d="M79.4124 508C79.7216 508.114 79.9279 508.457 79.8247 508.8 79.7216 509.143 79.4124 509.371 79.1031 509.257 79.1031 509.257 79 509.257 79 509.143L85.598 512 89 512 79.7216 508 79.4124 508Z" fill-rule="evenodd"/><path d="M41 495 41 495.404 41.1063 496.415 78.1095 509.962C78.4285 510.063 78.8538 509.962 78.9602 509.659 79.0665 509.356 78.9602 508.951 78.6412 508.85L77.6841 508.547 41 495Z" fill-rule="evenodd"/><path d="M18.0283 99.4865C17.9173 99.7298 18.1391 99.973 18.5826 100.054L18.8044 100.054 30.7782 102C30.4457 101.919 30.2239 101.676 30.2239 101.432 30.3348 101.189 30.6674 101.027 31 101.027 31 101.027 31 101.027 31 101.027L30.1131 100.865 18.8044 99 18.5826 99 18.4717 99C18.25 99.1622 18.1391 99.3243 18.0283 99.4865Z" fill-rule="evenodd"/><path d="M63.0001 107.266 31.2055 101.116 30.7773 101.024C30.4561 100.932 30.1349 101.116 30.0278 101.391 29.9208 101.666 30.1349 101.942 30.4561 102.034 30.4561 102.034 30.4561 102.034 30.4561 102.034L61.2872 108 62.7859 107.266 63.0001 107.266Z" fill-rule="evenodd"/><path d="M543.025 415.497C542.929 415.848 543.121 416.198 543.409 416.315L543.698 416.431 550.712 419C550.423 418.883 550.231 418.533 550.327 418.183 550.327 418.183 550.327 418.183 550.327 418.183 550.423 417.833 550.712 417.599 551 417.716 551 417.716 551 417.716 551 417.716L543.698 415.03C543.409 414.914 543.121 415.147 543.025 415.497Z" fill-rule="evenodd"/><path d="M118.889 325.265C119.111 325.541 119 325.816 118.667 326L119 325.816 133 318.194 132.889 317.276 132.889 317 118 325.173C118.333 324.898 118.667 324.99 118.889 325.265Z" fill-rule="evenodd"/><path d="M117.814 327.501 117.74 326.253C117.74 325.879 117.888 325.504 118.109 325.504 118.331 325.504 118.553 325.754 118.553 326.128L118.553 326.627 118.775 326.378C118.997 326.128 119.071 325.754 118.923 325.379 118.775 325.005 118.553 324.88 118.331 325.13L117.444 326.128 117 326.627 117.222 326.752C117.444 326.877 117.592 327.251 117.518 327.626 117.518 327.626 117.518 327.626 117.518 327.626 117.518 327.75 117.444 328 117.296 328L117.296 328 117.814 327.501Z" fill-rule="evenodd"/><path d="M61 109.519C61 109.519 61 109.62 61 109.519L61 109.519 61.0869 109.722C61.0869 109.722 61.1739 109.823 61.1739 109.823 61.1739 109.823 61.2609 109.823 61.2609 109.924L61.3478 109.924C61.4348 110.025 61.6087 110.025 61.6956 109.924L62.9131 109.114 63.0001 109.114C62.7392 109.316 62.4783 109.114 62.3044 108.81 62.1305 108.506 62.3044 108.203 62.5652 108L62.5652 108 61.3478 108.81 61.1739 108.81 61.1739 108.81 61.1739 108.81 61.0869 108.911C61.0869 108.911 61.0869 108.911 61 109.013L61 109.013C61 109.013 61 109.013 61 109.114 61 109.114 61 109.215 61 109.215L61 109.215C61 109.215 61 109.316 61 109.316 61 109.316 61 109.418 61 109.418 61 109.418 61 109.418 61 109.418 61 109.418 61 109.418 61 109.519Z" fill-rule="evenodd"/><path d="M351 302.431 351 301.388 349.161 202.759 349.161 202C349.161 202.285 348.968 202.569 348.581 202.569 348.581 202.569 348.581 202.569 348.581 202.569 348.29 202.569 348 202.285 348 202 348 202 348 202 348 202L349.839 302.431C349.839 302.431 349.839 302.431 349.839 302.526 349.839 302.526 349.839 302.621 349.839 302.621 349.839 302.621 349.839 302.716 349.936 302.716 349.936 302.81 350.032 302.81 350.032 302.905L350.129 303 350.226 303 350.323 303 350.323 303 350.419 303 350.516 303 350.613 303C350.806 302.81 350.903 302.621 351 302.431Z" fill-rule="evenodd"/><path d="M348.412 203C348.706 203 349 202.715 349 202.43 349 202.43 349 202.43 349 202.43L349 201.955 345.176 0 344 0 347.824 202.43C347.824 202.715 348.118 203 348.412 203 348.412 203 348.412 203 348.412 203Z" fill-rule="evenodd"/><path d="M260.689 83.5687C260.344 83.5687 260 83.3791 260 83L260 83.9478 265.623 200.716 266.541 200.905 267 201 261.262 83C261.148 83.2843 260.918 83.5687 260.689 83.5687Z" fill-rule="evenodd"/><path d="M489.667 232.377 489.667 232.849 489 261.151 489 261.434C489 261.717 489.222 262 489.667 262 489.667 262 489.667 262 489.667 262 489.778 262 490 261.906 490.111 261.906 490.111 261.906 490.222 261.811 490.222 261.811L490.333 261.717C490.333 261.717 490.333 261.623 490.333 261.623 490.333 261.623 490.333 261.528 490.333 261.528L490.333 261.528 491 232.566C491 232.566 491 232.566 491 232.472 491 232.472 491 232.377 491 232.377 491 232.377 491 232.283 491 232.283 491 232.283 491 232.189 490.889 232.189 490.889 232.189 490.889 232.094 490.778 232.094L490.667 232 490.556 232C490.444 232 490.444 232 490.333 232 490 232 489.667 232.094 489.667 232.377Z" fill-rule="evenodd"/><path d="M41.0813 504.64C41.0813 504.73 41.1714 504.73 41.0813 504.64 41.1714 504.73 41.1714 504.82 41.1714 504.82 41.1714 504.82 41.2615 504.91 41.2615 504.91 41.3516 505 41.4417 505 41.5318 505 41.8022 505 42.0725 504.73 41.9823 504.46 41.9823 504.46 41.9823 504.46 41.9823 504.46L41.9823 504.1 41.1714 496.9 41.0813 496C41.0813 496.27 40.9011 496.54 40.6307 496.54 40.6307 496.54 40.6307 496.54 40.6307 496.54 40.3604 496.54 40.0901 496.36 40 496.09L40.9011 504.55C40.9011 504.55 40.9011 504.55 40.9011 504.64 41.0813 504.55 41.0813 504.64 41.0813 504.64Z" fill-rule="evenodd"/><path d="M266.737 200.851C266.632 201.17 266.316 201.383 266 201.277L279.895 204.681 281.263 205C281.474 205 281.684 205 281.79 204.894 281.79 204.894 281.895 204.894 281.895 204.787 281.895 204.787 282 204.681 282 204.681L282 204.574 282 204.574C282 204.574 282 204.468 282 204.468L282 204.362 282 204.255 282 204.255C282 204.255 282 204.149 282 204.149L282 204.149 281.895 204.043 281.79 203.936 281.79 203.936C281.79 203.936 281.684 203.936 281.684 203.83L281.684 203.83 281.684 203.83 266.842 200.106 266.421 200C266.632 200.319 266.737 200.532 266.737 200.851Z" fill-rule="evenodd"/><path d="M233.743 231.041C233.531 230.942 233.318 231.041 233.212 231.14L233.106 231.239 233 231.338C233 231.338 233 231.338 233 231.437L233 231.437C233 231.437 233 231.536 233 231.536 233 231.536 233 231.635 233 231.635 233 231.635 233 231.733 233 231.733 233 231.733 233 231.832 233.106 231.832 233.106 231.832 233.106 231.931 233.212 231.931 233.212 231.931 233.212 232.03 233.318 232.03L233.425 232.129 233.531 232.129 233.531 232.129 282.682 244C282.363 243.901 282.151 243.604 282.257 243.308 282.257 243.308 282.257 243.308 282.257 243.308 282.363 243.011 282.682 242.813 283 242.912L282.151 242.714 235.123 231.338 233.743 231.041Z" fill-rule="evenodd"/><path d="M282.028 243.41C281.921 243.666 282.135 243.923 282.456 244.009 282.456 244.009 282.456 244.009 282.456 244.009L310.287 249.829 311.144 250 311.144 249.658C311.144 249.401 311.358 249.144 311.786 249.144 311.786 249.144 311.786 249.144 311.786 249.144 311.893 249.144 311.893 249.144 312 249.144L312 249.144 283.312 243.153 282.884 243.067C282.456 242.896 282.135 243.067 282.028 243.41 282.028 243.41 282.028 243.41 282.028 243.41Z" fill-rule="evenodd"/><path d="M114.854 35.2436C114.961 35.5273 114.854 35.8109 114.534 36L114.534 36 187.426 4.1347 187.64 4.04009C187.96 3.94556 188.067 3.56735 187.96 3.28367 187.96 3.28367 187.96 3.28367 187.96 3.28367 187.853 3.09453 187.64 3 187.426 3L187.32 3C187.32 3 187.213 3 187.213 3L187.106 3 114.854 34.6762 114 35.0544C114.32 34.8654 114.747 34.9599 114.854 35.2436 114.854 35.2436 114.854 35.2436 114.854 35.2436Z" fill-rule="evenodd"/><path d="M93.8569 44.6276 93.8569 45.0001 95.1424 44.4413 114.638 36.0594C114.96 35.9662 115.067 35.5937 114.96 35.3143 114.853 35.0349 114.424 34.9418 114.103 35.0349 114.103 35.0349 114.103 35.0349 114.103 35.0349L113.674 35.2212 93 44.1619 93 44.1619C93.1071 44.1619 93.1071 44.0688 93.2143 44.0688 93.5356 44.0688 93.8569 44.3482 93.8569 44.6276Z" fill-rule="evenodd"/><path d="M94 44 94 44C93 44.3333 93 44.3333 93 44.6669 93 44.6669 93 45.0003 93 45.0003 94 44.3333 94 44.3333 94 44L94 44Z" fill-rule="evenodd"/><path d="M93.0011 44C93.0011 44 93.0011 44.5 93.0011 44 93.0011 44.5 93.0011 45.0004 93.0011 45.0004 91.666 44.5 91.666 44 93.0011 44L93.0011 44Z" fill-rule="evenodd"/><path d="M240.154 61.7429C240.231 61.9143 240.385 62.0001 240.538 62.0001 240.769 62.0001 241 61.7429 241 61.4858L240.923 59.6 240.923 59C240.923 59.2572 240.692 59.5143 240.462 59.5143 240.231 59.5143 240 59.2572 240 59L240.077 61.4858C240.077 61.5715 240.154 61.6572 240.154 61.7429Z" fill-rule="evenodd"/><path d="M237.588 10.0953 237.588 10.0953 237.471 10.0953 237.353 10.0953C237.118 10.1907 237 10.3813 237 10.6673L237 11.5253 239.588 58.4281 239.588 58.4281C239.588 58.7141 239.941 59.0001 240.294 59.0001 240.647 59.0001 241 58.7141 241 58.4281L241 57.9514 238.412 10.572 238.412 10.572C238.412 10.572 238.412 10.4767 238.412 10.4767 238.412 10.4767 238.412 10.4767 238.412 10.3813 238.412 10.3813 238.412 10.3813 238.412 10.286L238.294 10.1907 238.294 10.1907 238.294 10.0953C238.294 10.0953 238.176 10.0953 238.176 10L238.176 10 238.059 10C238.059 10 237.941 10 237.941 10L237.588 10.0953Z" fill-rule="evenodd"/><path d="M97.6667 97C97.8667 97 98 96.7873 98 96.4681 98 96.3617 98 96.3617 98 96.2553L97.8 92C97.8 92.3192 97.6 92.6383 97.4 92.6383 97.2 92.6383 97.0667 92.4255 97 92.1064L97.0667 93.0638 97.2667 96.3617C97.2 96.6808 97.4 97 97.6667 97 97.6 97 97.6 97 97.6667 97Z" fill-rule="evenodd"/><path d="M97.4825 93.0001C97.7813 93.0001 98.0801 92.7142 97.9806 92.4283 97.9806 92.4283 97.9806 92.4283 97.9806 92.4283L93.9961 45.2575 93.9961 44.8764 93.9961 44.4952C93.9961 44.2093 93.6973 43.9234 93.3984 44.0187 93.3984 44.0187 93.3984 44.0187 93.3984 44.0187 93.2988 44.0187 93.1993 44.0187 93.1993 44.114L93.1993 44.114 93.1993 44.114C93.0996 44.2093 93.0996 44.3046 93 44.3998L93 44.3998C93 44.4952 93 44.4952 93 44.5905L93 44.5905 96.9844 92.1424 96.9844 92.5236C96.9844 92.7142 97.1836 93.0001 97.4825 93.0001Z" fill-rule="evenodd"/><path d="M379.04 477.446C379.16 477.208 379.52 477.05 380 477.129L379.04 476.892 375.32 476.1 374.84 476.021C374.48 475.941 374.12 476.1 374 476.337 374 476.337 374 476.337 374 476.337 374 476.416 374 476.416 374 476.496 374 476.496 374 476.575 374 476.575 374 476.575 374 476.654 374 476.654 374 476.654 374 476.733 374.12 476.733L374.24 476.812 374.36 476.812 374.48 476.892 374.48 476.892 374.84 476.971 379.64 478C379.16 477.921 378.92 477.683 379.04 477.446Z" fill-rule="evenodd"/><path d="M379.028 477.365C378.921 477.652 379.135 477.94 379.456 478.131L474.182 506.688 474.717 506.879 475.145 506.975C475.465 507.071 475.786 506.879 476 506.592 476 506.496 476 506.496 476 506.4 476 506.4 476 506.304 476 506.304L476 506.304C476 506.304 476 506.208 476 506.208L475.893 506.113 475.786 506.017 475.679 506.017 475.572 505.921 475.572 505.921 380.204 477.173 379.776 477.077C379.562 476.885 379.135 477.077 379.028 477.365Z" fill-rule="evenodd"/><path d="M23.1076 348.137 88.5693 367C88.2464 366.905 88.0311 366.621 88.1387 366.336 88.2464 366.052 88.5693 365.863 89.0001 365.957L88.6771 365.863 23 347 23 347.379 23.1076 348.137Z" fill-rule="evenodd"/><path d="M489.249 401.236C489.356 400.949 489.678 400.758 490 400.853 490 400.853 490 400.853 490 400.853L489.249 400.662 468.853 395.311 467.779 395.025C467.457 394.929 467.135 395.12 467.028 395.407 467.028 395.407 467.028 395.407 467.028 395.407 466.921 395.694 467.135 395.98 467.457 396.076 467.457 396.076 467.457 396.076 467.457 396.076L489.678 402C489.356 401.905 489.141 401.618 489.249 401.236 489.249 401.236 489.249 401.236 489.249 401.236Z" fill-rule="evenodd"/><path d="M489.757 401.027C489.444 400.923 489.131 401.131 489.027 401.442 488.923 401.753 489.131 402.064 489.444 402.167L509.243 407.973C509.556 408.077 509.869 407.869 509.973 407.558 510.077 407.247 509.869 406.936 509.556 406.833L509.556 406.833 508.827 406.625 490.278 401.131 489.757 401.027Z" fill-rule="evenodd"/><path d="M551.026 418.385C550.925 418.656 551.128 418.927 551.432 419.018 551.432 419.018 551.432 419.018 551.432 419.018L562.696 422C562.391 421.91 562.188 421.639 562.29 421.367 562.391 421.096 562.696 420.916 563 421.006L563 421.006 551.737 418.023C551.432 417.933 551.128 418.114 551.026 418.385 551.026 418.385 551.026 418.385 551.026 418.385Z" fill-rule="evenodd"/><path d="M563.027 421.389C562.924 421.681 563.129 421.973 563.437 422.07L576.257 425.67 577.282 425.962C577.487 426.059 577.692 425.962 577.897 425.767 577.897 425.767 578 425.67 578 425.67 578 425.67 578 425.573 578 425.573L578 425.573C578 425.573 578 425.573 578 425.475 578 425.378 578 425.378 578 425.378 578 425.378 578 425.281 578 425.281L578 425.184 578 425.184 577.897 425.086 577.897 425.086 577.795 424.989 577.692 424.892 577.692 424.892 577.59 424.892 577.59 424.892 563.745 421C563.539 421 563.232 421.097 563.027 421.389 563.027 421.389 563.027 421.389 563.027 421.389Z" fill-rule="evenodd"/><path d="M113.677 327C113.353 326.904 113.137 326.616 113.245 326.329 113.353 326.041 113.677 325.849 114 325.945L114 325.945 92.3235 320 92.3235 320C92.6471 320.096 92.8627 320.384 92.7549 320.671 92.7549 320.671 92.7549 320.671 92.7549 320.671 92.6471 320.959 92.3235 321.151 92 321.055 92 321.055 92 321.055 92 321.055L92.8627 321.342 113.245 326.904 113.677 327Z" fill-rule="evenodd"/><path d="M113.024 326.331C112.93 326.626 113.119 326.92 113.401 327.018 113.401 327.018 113.401 327.018 113.401 327.018L114.153 327.313 116.317 328 116.317 328 116.411 328 116.505 328 116.599 328 116.599 328 116.693 328 116.693 328C116.787 327.902 116.882 327.804 116.976 327.706 117.07 327.411 116.882 327.117 116.599 327.018 116.599 327.018 116.599 327.018 116.599 327.018L116.317 326.92 115.753 326.724 113.589 326.037 113.589 326.037C113.307 325.939 113.119 326.037 113.024 326.331Z" fill-rule="evenodd"/><path d="M259.8 82.4375C259.8 82.7187 260.1 83 260.4 83 260.7 83 261 82.7187 261 82.4375 261 82.4375 261 82.4375 261 82.4375L260.2 62C260.2 62.2813 259.9 62.5625 259.6 62.5625 259.3 62.5625 259 62.2813 259 62L259 62.4688 259.8 82.0625 259.8 82.4375Z" fill-rule="evenodd"/><path d="M259.368 63C259.684 63 260 62.7136 260 62.4273 260 62.4273 260 62.4273 260 62.4273L257.263 0 256 0 258.737 61.7591 258.737 62.4273C258.632 62.7136 258.947 63 259.368 63 259.263 63 259.368 63 259.368 63Z" fill-rule="evenodd"/><path d="M40.634 496C40.8453 496 41.0566 495.778 40.9862 495.556 40.9862 495.556 40.9862 495.556 40.9862 495.556L40.9862 495.259 40.8453 494.222 40.8453 494C40.9158 494.222 40.7044 494.444 40.4931 494.519 40.2818 494.593 40.0704 494.37 40 494.148 40 494.148 40 494.074 40 494.074L40.1409 495.556C40.2113 495.778 40.3522 496 40.634 496 40.634 496 40.634 496 40.634 496Z" fill-rule="evenodd"/><path d="M91.1579 464.474C91.1579 464.285 90.9474 464.095 90.7368 464L90.6316 464 90.5263 464 90.421 464 90.3158 464 90.2106 464 90.1052 464.095C90.1052 464.095 90.1052 464.19 90.1052 464.19 90.1052 464.19 90.1052 464.285 90 464.285 90 464.285 90 464.379 90 464.379 90 464.379 90 464.474 90 464.474L90 464.474 94.8422 512 96.0001 512 91.1579 465.233 91.1579 464.474Z" fill-rule="evenodd"/><path d="M159.16 254.727C158.95 254.455 159.055 254.182 159.37 254L159.055 254.182 141.735 263.636 141 264.091 141 264.091C141.315 264 141.63 264.182 141.735 264.455 141.84 264.636 141.735 264.909 141.525 265L141.525 265 160 254.909C159.79 255 159.37 254.909 159.16 254.727Z" fill-rule="evenodd"/><path d="M141.1 265.87 141.1 265.87C141 266 141 266 141 266L141.697 265.35 141.697 265.35C141.996 265.091 142.096 264.701 141.896 264.311 141.896 264.311 141.896 264.311 141.896 264.311 141.697 264.051 141.398 263.921 141.199 264.051L141.299 265.35C141.299 265.35 141.299 265.35 141.299 265.48 141.299 265.61 141.299 265.61 141.299 265.61" fill-rule="evenodd"/><path d="M129 272C129 272 129 271 130 271L130 271C129 271 129 272 129 272Z" fill-rule="evenodd"/><path d="M140.919 265.767C141.027 265.767 141.027 265.671 140.919 265.767 140.919 265.767 140.81 265.863 140.594 265.863 140.269 265.863 139.944 265.671 139.944 265.384 139.944 265.384 139.944 265.384 139.944 265.384L139.944 265 129.108 271.137 129 271.233C129.108 271.137 129.217 271.137 129.325 271.137 129.65 271.137 129.975 271.329 129.975 271.616 129.975 271.616 129.975 271.616 129.975 271.616L129.975 272 130.842 271.521 140.919 265.767 140.919 265.767Z" fill-rule="evenodd"/><path d="M142.706 428.663C142.353 428.663 142 428.474 142 428.189 142 428.189 142 428.189 142 428.189L142.118 429.136 146.706 477.716 146.706 478C146.706 477.716 146.941 477.432 147.294 477.432 147.647 477.432 148 477.621 148 477.905L143.176 428C143.412 428.379 143.176 428.663 142.706 428.663 142.706 428.663 142.706 428.663 142.706 428.663Z" fill-rule="evenodd"/><path d="M318 459.529C318 459.529 318 459.623 318 459.623 318 459.623 318 459.718 318 459.718L318.083 459.812 318.167 459.906 318.25 459.906 318.333 460C318.417 460 318.417 460 318.5 460 318.75 460 319 459.718 319 459.435 319 459.435 319 459.435 319 459.435L319 459.058 318 418.283 318 418C318 418.283 317.75 418.565 317.5 418.565 317.25 418.565 317 418.283 317 418 317 418 317 418 317 418L318 459.247 318 459.529 318 459.529Z" fill-rule="evenodd"/><path d="M317.5 419C317.75 419 318 418.6 318 418.2L318 417C318 417.4 317.833 417.8 317.583 417.933 317.333 417.933 317.083 417.667 317 417.267 317 417.133 317 417.133 317 417L317 417 317 418.2C317 418.6 317.25 419 317.5 419 317.5 419 317.5 419 317.5 419Z" fill-rule="evenodd"/><path d="M317.5 418C317.75 418 318 417.719 318 417.438 318 417.438 318 417.438 318 417.438L318 417.438 318 417.156 318 416.312 318 415.75 318 415 318 415C318 415.281 317.833 415.563 317.5 415.563 317.5 415.563 317.5 415.563 317.5 415.563 317.25 415.563 317 415.375 317 415 317 415 317 415 317 415L317.083 417.438 317.083 417.438C317 417.719 317.25 418 317.5 418Z" fill-rule="evenodd"/><path d="M105.26 371.238C105.366 370.911 105.683 370.693 106 370.802L105.683 370.693 90.0362 365.464 88.8733 365.028C88.5561 364.919 88.2389 365.137 88.0275 365.464 87.9218 365.791 88.1332 366.118 88.4504 366.227L105.683 372C105.366 372 105.154 371.673 105.26 371.238Z" fill-rule="evenodd"/><path d="M105.767 371.023C105.45 370.935 105.133 371.111 105.027 371.376 104.922 371.641 105.133 371.906 105.45 372.082L138 381 138 380.647 137.894 379.852 106.93 371.464 105.767 371.023Z" fill-rule="evenodd"/><path d="M4.22222 301.44C4.33331 301.2 4.66666 301.04 5 301.12 5 301.12 5 301.12 5 301.12L4.00005 300.88 0 300 0 300.96 4.55557 302C4.22222 301.92 4.00005 301.68 4.22222 301.44 4.11114 301.44 4.11114 301.44 4.22222 301.44Z" fill-rule="evenodd"/><path d="M17.6726 304.069C17.7817 304.069 17.891 304.069 18.0001 304.154L17.891 304.154 5.22912 301.107 4.79243 301.022C4.46504 300.937 4.13757 301.107 4.02836 301.361 4.02836 301.361 4.02836 301.361 4.02836 301.361 3.91923 301.615 4.13757 301.868 4.46504 301.953 4.46504 301.953 4.46504 301.953 4.46504 301.953L4.46504 301.953 16.2536 304.746 17.236 305 17.236 304.662C17.0177 304.408 17.236 304.154 17.6726 304.069Z" fill-rule="evenodd"/><path d="M19.0011 306C19.0011 306 19.0011 304.667 19.0011 306 17.666 304.667 17.666 304.667 19.0011 306L19.0011 306Z" fill-rule="evenodd"/><path d="M40.4028 493.982C40.7476 493.982 41.0925 493.702 40.9775 493.422 40.9775 493.422 40.9775 493.422 40.9775 493.422L40.8625 492.489 36.4944 459.933 36.3795 459C36.3795 459.28 36.1495 459.56 35.8047 459.653 35.4598 459.746 35.1149 459.466 35 459.187L35 459.187 39.5981 493.515C39.713 493.795 40.0579 494.075 40.4028 493.982Z" fill-rule="evenodd"/><path d="M203.859 229.255C204.074 229.535 203.967 229.814 203.645 230 203.645 230 203.645 230 203.645 230L258 200.117 257.785 200.024C257.463 199.931 257.248 199.652 257.356 199.372 257.356 199.186 257.463 199.093 257.678 199L257.678 199 203.967 228.511 203 228.976C203.215 228.883 203.537 228.976 203.859 229.255 203.752 229.255 203.752 229.255 203.859 229.255Z" fill-rule="evenodd"/><path d="M203.936 229.294C203.72 229.004 203.397 228.907 203.074 229.101 203.074 229.101 203.074 229.101 203.074 229.101L202.75 229.294 160.19 253.45 159.328 253.933C159.004 254.127 158.897 254.416 159.112 254.706 159.328 254.996 159.651 255.093 159.974 254.9L203.72 230.067C204.043 229.874 204.043 229.584 203.936 229.294Z" fill-rule="evenodd"/><path d="M139.711 390.667C139.355 390.667 139 390.477 139 390.191L139.118 391.144 142.673 428.219 142.673 428.505C142.673 428.791 143.029 429.077 143.384 428.981 143.384 428.981 143.384 428.981 143.384 428.981 143.74 428.981 144.095 428.695 143.977 428.409 143.977 428.409 143.977 428.409 143.977 428.409L140.303 390C140.422 390.381 140.066 390.667 139.711 390.667 139.711 390.667 139.711 390.667 139.711 390.667Z" fill-rule="evenodd"/><path d="M36.3878 459C36.7552 459 37 458.719 37 458.438L37 458.062 32.5919 426.844 32.4694 426C32.5919 426.281 32.2245 426.562 31.8571 426.656 31.4898 426.75 31.1224 426.469 31 426.188 31 426.188 31 426.094 31 426.094L35.5307 458.438C35.6531 458.813 36.0204 459 36.3878 459Z" fill-rule="evenodd"/><path d="M317.538 415C317.769 415 318 414.746 318 414.492 318 414.492 318 414.492 318 414.492L318 414.492 318 414.153 317.923 410.678 317.923 410C317.923 410.254 317.692 410.508 317.462 410.508 317.231 410.508 317 410.254 317 410 317 410 317 410 317 410L317.077 414.576 317.077 414.576C317.077 414.746 317.308 415 317.538 415 317.538 415 317.538 415 317.538 415Z" fill-rule="evenodd"/><path d="M317.25 410C317.625 410 318 409.719 318 409.438 318 409.438 318 409.438 318 409.438L318 409.063 316.5 370.281 316.5 370C316.5 370.281 316.125 370.562 315.75 370.562 315.375 370.562 315 370.281 315 370 315 370 315 370 315 370L316.5 409.438C316.5 409.813 316.75 410 317.25 410Z" fill-rule="evenodd"/><path d="M316.308 370C316.654 370 317 369.719 317 369.438L317 368.408 315.385 320.749 315.385 320C315.385 320.281 315.039 320.562 314.692 320.562 314.346 320.562 314 320.281 314 320L315.731 369.438C315.615 369.719 315.962 370 316.308 370Z" fill-rule="evenodd"/><path d="M311 250.472 311 250.849 311 251.415 313.5 319.434C313.5 319.717 313.875 320 314.25 320 314.625 320 315 319.717 315 319.434L315 319.057 312.5 250.377 312.5 250.377C312.5 250.377 312.5 250.283 312.5 250.283L312.5 250.283 312.5 250.189 312.375 250.094 312.375 250.094 312.25 250 312.125 250 312.125 250 312 250C311.875 250 311.875 250 311.75 250 311.5 250 311.125 250.189 311 250.472Z" fill-rule="evenodd"/><path d="M32.4407 427C32.7636 427 33.0865 426.715 32.9789 426.429L32.9789 426.049 23.3993 347.856 23.2917 347C23.2917 347.285 23.0764 347.571 22.7534 347.666 22.4305 347.761 22.1076 347.476 22 347.19L31.6872 426.62C31.7949 426.81 32.1178 427 32.4407 427Z" fill-rule="evenodd"/><path d="M22.4751 348C22.7782 348 23.0813 347.716 22.9802 347.432L22.9802 347.053 18.1311 305.474 18.1311 305.474 18.1311 305.474 18.1311 305.474C18.1311 305.379 18.1311 305.379 18.03 305.284L18.03 305.284 18.03 305.189C18.03 305.189 17.929 305.095 17.929 305.095L17.929 305.095 17.828 305.095 17.828 305.095C17.727 305.095 17.626 305 17.525 305 17.2219 305 16.9188 305.284 17.0198 305.568L17.0198 305.947 17.1208 306.421 21.768 347.432C21.97 347.811 22.172 348 22.4751 348Z" fill-rule="evenodd"/><path d="M138.66 381.57C138.33 381.57 138 381.38 138 381.095 138 381.095 138 381.095 138 381.095L138 381.475 138.769 390.221 138.769 390.506C138.769 390.791 139.099 391.076 139.429 390.981 139.759 390.981 140.088 390.696 139.978 390.411L139.099 381C139.319 381.285 138.989 381.57 138.66 381.57Z" fill-rule="evenodd"/><path d="M137.75 366.539C137.375 366.539 137 366.359 137 366.09 137 366.09 137 366.09 137 366.09L137 366.449 138.375 379.653 138.5 380.461C138.5 380.731 138.75 381 139.25 381 139.625 381 140 380.82 140 380.461 140 380.461 140 380.371 140 380.371L140 380.371 138.5 366C138.375 366.269 138.125 366.539 137.75 366.539Z" fill-rule="evenodd"/><path d="M133.586 317.57C133.293 317.57 133 317.38 133 317.095 133 317.095 133 317.095 133 317.095L133.098 318.044 136.809 364.652 136.907 365.507C136.907 365.792 137.2 366.076 137.493 365.981 137.493 365.981 137.493 365.981 137.493 365.981 137.785 365.981 138.078 365.697 137.981 365.412 137.981 365.412 137.981 365.412 137.981 365.412L137.981 365.412 134.172 317C134.074 317.285 133.879 317.57 133.586 317.57Z" fill-rule="evenodd"/><path d="M130.122 271.493C130.122 271.208 129.816 270.924 129.51 271.019 129.51 271.019 129.51 271.019 129.51 271.019 129.408 271.019 129.306 271.113 129.204 271.113 129.204 271.113 129.102 271.113 129.102 271.208 129.102 271.303 129.102 271.208 129.102 271.208 129.102 271.208 129.102 271.303 129 271.303L129 271.398 129 271.398C129 271.398 129 271.493 129 271.493 129 271.493 129 271.493 129 271.588L132.776 317.146 132.776 317.431C132.776 317.715 133.082 318 133.388 318 133.388 318 133.388 318 133.388 318 133.694 318 134 317.715 134 317.431L130.224 272.252 130.224 271.778 130.122 271.493Z" fill-rule="evenodd"/><path d="M140.891 265.527C140.891 265.527 140.891 265.432 141 265.432 141 265.432 141 265.338 141 265.338 141 265.338 141 265.338 141 265.243L140.891 264.297 140.891 264.297 127.196 102.87 127.196 102.492C127.196 102.208 126.87 101.924 126.543 102.019 126.543 102.019 126.543 102.019 126.543 102.019 126.435 102.019 126.326 102.113 126.217 102.113 126.217 102.113 126.109 102.113 126.109 102.208 126.109 102.208 126 102.302 126 102.302L126 102.397C126 102.492 126 102.492 126 102.586L126 102.586 126 102.586 126.109 103.438 139.696 265.054 139.696 265.432C139.696 265.716 140.022 266 140.348 266 140.348 266 140.348 266 140.348 266 140.457 266 140.565 265.905 140.674 265.905L140.783 265.811C140.891 265.622 140.891 265.622 140.891 265.527Z" fill-rule="evenodd"/><path d="M92.9702 320.562C93.0849 320.288 92.8555 320.013 92.5114 319.922 92.5114 319.922 92.5114 319.922 92.5114 319.922L84.8255 318C84.7108 318 84.5961 318 84.5961 318 84.252 318 83.9078 318.275 84.0225 318.549 84.0225 318.732 84.252 318.915 84.4813 319.007L91.7084 320.837 92.1672 320.928C92.5114 321.111 92.8555 320.928 92.9702 320.562 92.9702 320.654 92.9702 320.654 92.9702 320.562Z" fill-rule="evenodd"/><path d="M62.0408 108.669C62.1499 108.963 62.5859 109.061 62.913 108.963 62.913 108.963 62.913 108.963 62.913 108.963L92.564 95.0188 92.564 95.0188C92.673 95.0188 92.673 94.9206 92.782 94.9206 92.891 94.8224 93.0001 94.626 93.0001 94.5278 93.0001 94.4297 93.0001 94.4297 92.891 94.3314 92.673 94.0368 92.346 93.9386 92.019 94.0368L91.6919 94.2332 62.5859 107.883 62.3679 107.981C62.0408 107.981 61.9319 108.374 62.0408 108.669 62.0408 108.669 62.0408 108.669 62.0408 108.669Z" fill-rule="evenodd"/><path d="M147.634 478C147.268 478 146.902 478.263 147.024 478.526 147.024 478.526 147.024 478.526 147.024 478.526L147.146 479.491 147.146 479.93 148.244 480.193C148.61 480.281 148.854 480.544 148.732 480.895 148.61 481.158 148.122 481.333 147.756 481.246L147.268 481.158 147.39 481.772 147.512 482.561 147.512 482.561 147.512 482.561C147.512 482.561 147.512 482.561 147.512 482.649 147.512 482.649 147.512 482.737 147.512 482.737 147.512 482.737 147.512 482.825 147.634 482.825 147.634 482.825 147.756 482.912 147.756 482.912L147.878 482.912C148 483 148.122 483 148.366 483 148.732 483 149.098 482.737 148.976 482.474 148.976 482.474 148.976 482.474 148.976 482.474L148.976 482.123 148.61 478.526C148.244 478.263 148 478 147.634 478Z" fill-rule="evenodd"/><path d="M257.73 199 257.529 199 257.529 199C257.428 199 257.428 199 257.328 199.093 257.227 199.186 257.127 199.279 257.026 199.465 256.926 199.744 257.127 200.023 257.428 200.116L257.629 200.209 265.27 201.976C265.572 202.069 265.873 201.883 265.974 201.604 266.074 201.325 265.873 201.046 265.572 200.953L264.767 200.767 257.73 199 257.73 199Z" fill-rule="evenodd"/><path d="M144.913 479.038C144.586 478.936 144.258 479.038 144.039 479.344 144.039 479.344 144.039 479.344 144.039 479.344 143.93 479.649 144.039 479.955 144.476 480.159L145.459 480.464 146.661 480.872 147.098 480.974C147.425 481.075 147.753 480.872 147.972 480.566 148.081 480.261 147.862 479.955 147.535 479.751L146.552 479.446 146.005 479.242 144.913 479.038Z" fill-rule="evenodd"/><path d="M121.903 360.505 119.087 326.859 119.087 326.486C119.087 326.205 118.796 325.925 118.505 326.018 118.213 326.018 117.922 326.299 118.019 326.579L118.116 327.514 120.835 360.037 120.932 361.065 120.932 361.533C120.932 361.813 121.126 362 121.417 362L121.515 362C121.806 362 122 361.813 122 361.533 122 361.439 122 361.439 122 361.346L121.903 360.505Z" fill-rule="evenodd"/><path d="M511.363 384.985 540.5 362.5 540.5 415.5 510.5 407.092Z" stroke="#000000" stroke-width="1.33207" stroke-linecap="round" stroke-linejoin="round" stroke-miterlimit="10" fill="#9FD1D0" fill-rule="evenodd"/><text font-family="Posterama,Posterama_MSFontService,sans-serif" font-weight="700" font-size="51" transform="translate(521.6 178)">DEEP LEARNING</text><text font-family="Posterama,Posterama_MSFontService,sans-serif" font-weight="700" font-size="51" transform="translate(521.6 232)">PAPER NOTES</text><text font-family="Microsoft JhengHei UI,Microsoft JhengHei UI_MSFontService,sans-serif" font-weight="400" font-size="43" transform="translate(521.6 291)"></text><text font-family="Microsoft JhengHei UI,Microsoft JhengHei UI_MSFontService,sans-serif" font-weight="400" font-size="43" transform="translate(606.933 291)"></text><text font-family="Microsoft JhengHei UI,Microsoft JhengHei UI_MSFontService,sans-serif" font-weight="400" font-size="43" transform="translate(521.6 346)"></text><text fill="#FFFFFF" font-family="Smiley Sans Oblique,Smiley Sans Oblique_MSFontService,sans-serif" font-style="oblique" font-weight="400" font-size="32" transform="translate(644.046 450)">zihol.gitbook.io/papers</text></g></svg>